<svg width="287" height="287" viewBox="0 0 287 287" fill="none" xmlns="http://www.w3.org/2000/svg">
<mask id="mask0_1147_390" style="mask-type:luminance" maskUnits="userSpaceOnUse" x="0" y="0" width="287" height="287">
<path d="M287 0H0V287H287V0Z" fill="white"/>
</mask>
<g mask="url(#mask0_1147_390)">
<path d="M143.493 286.985C222.742 286.985 286.985 222.742 286.985 143.493C286.985 64.2438 222.742 0 143.493 0C64.2438 0 0 64.2438 0 143.493C0 222.742 64.2438 286.985 143.493 286.985Z" fill="#F8F8E4"/>
<path d="M159.524 56.4648C141.356 70.0544 128.753 101.592 144.949 132.319C160.879 162.531 193.388 166.388 213.338 164.298C192.637 182.083 144.006 181.509 122.834 148.235C99.4539 111.486 121.112 70.6286 159.524 56.4648Z" fill="#1854A2" stroke="#1854A2" stroke-width="3.85" stroke-miterlimit="10"/>
<path d="M61.7051 175.841H70.0679L119.641 105.582V94.4951L61.7051 175.841Z" fill="#1854A2" stroke="#1854A2" stroke-width="0.64" stroke-miterlimit="10"/>
<path d="M115.623 111.558L101.68 175.839H105.935L119.642 111.558H115.623Z" fill="#1854A2"/>
<path d="M97.1433 133.981H115.15L110.954 140.121H91.416L97.1433 133.981Z" fill="#1854A2"/>
<path d="M81.7896 157.833H108.807L106.348 160.999H76.8867L81.7896 157.833Z" fill="#1854A2"/>
<path d="M56.2784 193.227C56.1865 195.109 56.1406 196.521 56.1406 197.463L56.2095 202.663C56.2324 203.489 56.2439 204.339 56.2439 205.21L56.175 208.965L56.1406 209.654L56.175 210.618L56.2439 211.823L61.1684 211.995L65.2665 212.03H65.3354C65.4732 212.03 65.5536 212.052 65.5765 212.098C65.5995 212.145 65.5995 212.213 65.5765 212.306C65.5765 212.375 65.5765 212.432 65.5765 212.478C65.5536 212.569 65.5536 212.741 65.5765 212.995C65.6223 213.246 65.6453 213.476 65.6453 213.682C65.6453 213.844 65.588 213.947 65.4732 213.993C65.3583 214.038 65.2092 214.05 65.0255 214.027C64.8648 214.027 64.7385 214.027 64.6466 214.027L62.8215 213.924C61.2143 213.787 60.078 213.718 59.4121 213.718C58.6775 213.718 56.8178 213.787 53.8333 213.924L50.6994 214.027C50.1943 214.027 49.9418 213.797 49.9418 213.338V210.652L50.0796 199.115C50.0796 198.243 50.0222 196.659 49.9073 194.364L49.7695 190.128C49.7695 189.738 49.9188 189.542 50.2173 189.542C50.3321 189.542 50.5272 189.576 50.8027 189.645C51.0783 189.714 51.2963 189.748 51.4571 189.748C52.0999 189.841 52.8689 189.886 53.7644 189.886C54.3842 189.886 54.9696 189.853 55.5207 189.783C55.8651 189.738 56.1061 189.76 56.2439 189.853C56.3816 189.944 56.4505 190.093 56.4505 190.3C56.4505 190.461 56.4275 190.633 56.3816 190.816C56.3586 190.978 56.3471 191.16 56.3471 191.368L56.2784 193.227ZM69.4133 189.956C69.3903 190.231 69.3673 191.837 69.3445 194.776C69.3215 197.715 69.3101 200.735 69.3101 203.834C69.3101 205.165 69.4707 206.359 69.7921 207.415C70.1365 208.472 70.6072 209.298 71.2041 209.894C71.8009 210.492 72.4667 210.791 73.2014 210.791C74.2116 210.791 74.9348 210.503 75.371 209.929C75.8302 209.331 76.0598 208.712 76.0598 208.07L76.1287 205.969C76.1976 202.525 76.232 200.62 76.232 200.252C76.232 199.725 76.2549 198.679 76.3008 197.119C76.3697 195.81 76.4042 194.524 76.4042 193.261C76.4042 192.136 76.3582 191.344 76.2663 190.885C76.1976 190.609 76.1631 190.392 76.1631 190.231C76.1631 189.909 76.232 189.714 76.3697 189.645C76.5305 189.554 76.6796 189.518 76.8174 189.542C76.9781 189.542 77.0814 189.542 77.1274 189.542C77.3569 189.566 77.6096 189.576 77.885 189.576C78.1835 189.554 78.4474 189.542 78.677 189.542H79.5725C79.9398 189.542 80.1464 189.599 80.1923 189.714C80.2612 189.806 80.3071 190.023 80.3301 190.368C80.3759 190.873 80.3989 191.493 80.3989 192.228C80.3989 192.733 80.3874 193.101 80.3646 193.33C80.3416 193.56 80.3531 194.524 80.3989 196.223C80.5137 199.024 80.5711 201.331 80.5711 203.145V205.246C80.5252 208.207 79.8135 210.353 78.436 211.686C77.0814 212.995 75.4399 213.648 73.5113 213.648C72.0421 213.648 70.8597 213.167 69.9644 212.203C69.0689 211.215 68.4376 210.124 68.0702 208.931C67.9096 208.402 67.7833 207.587 67.6914 206.485C67.6226 205.361 67.5882 204.212 67.5882 203.042C67.5882 201.733 67.6226 200.861 67.6914 200.424C67.7373 200.103 67.7603 199.036 67.7603 197.222C67.7603 194.329 67.7144 192.239 67.6226 190.954C67.5997 190.816 67.5882 190.633 67.5882 190.403C67.5882 189.691 67.8062 189.427 68.2425 189.611L68.6213 189.645C68.713 189.645 68.8049 189.633 68.8968 189.611C69.0115 189.588 69.1263 189.576 69.2412 189.576C69.3559 189.576 69.4133 189.702 69.4133 189.956ZM88.3981 189.473L92.1518 189.508C94.5395 189.508 96.0893 189.542 96.801 189.611C98.1096 189.726 99.0394 189.783 99.5905 189.783C99.9577 189.783 100.199 189.772 100.314 189.748L100.555 189.714C100.715 189.714 100.807 189.748 100.83 189.817C100.876 189.863 100.888 189.932 100.865 190.023C100.865 190.093 100.865 190.15 100.865 190.196C100.865 190.403 100.819 190.827 100.727 191.471C100.704 191.7 100.601 191.93 100.417 192.16C100.256 192.389 99.9921 192.71 99.6248 193.124C99.6477 193.101 99.3837 193.399 98.8328 194.019C97.9373 195.213 96.7551 196.911 95.2857 199.115C94.9643 199.62 93.6786 201.343 91.4286 204.281L90.8777 205.004C90.3725 205.693 89.6264 206.67 88.6392 207.931C88.4326 208.161 88.1456 208.586 87.7783 209.206L87.2617 210.032L86.3663 211.513C87.4454 211.536 88.9033 211.547 90.7399 211.547L95.5267 211.583L96.9387 211.65L98.5916 211.72L100.865 211.686H100.934C101.117 211.686 101.197 211.743 101.175 211.858C101.175 211.949 101.175 212.007 101.175 212.03L101.209 213.132C101.209 213.407 101.06 213.545 100.761 213.545C100.692 213.545 100.52 213.522 100.245 213.476C99.579 213.361 98.8443 213.327 98.0407 213.373L94.7003 213.442L90.0167 213.545C86.5959 213.545 84.5985 213.579 84.0246 213.648H83.8179C83.5884 213.648 83.4506 213.603 83.4048 213.51C83.3588 213.419 83.3359 213.327 83.3359 213.235C83.3588 213.143 83.3703 213.074 83.3703 213.028C83.3703 212.684 83.5769 212.213 83.9902 211.617C84.3345 211.157 84.5756 210.824 84.7134 210.618C87.0092 207.496 88.4096 205.624 88.9148 205.004L91.291 201.974C93.3113 199.402 94.5051 197.887 94.8724 197.428C95.6301 196.51 96.5139 195.271 97.5242 193.709L98.9017 191.54H96.8354C95.2512 191.54 94.2411 191.528 93.8048 191.505C93.0931 191.505 92.4273 191.493 91.8075 191.471C89.7412 191.425 88.0193 191.402 86.6418 191.402C85.6546 191.402 84.9544 191.425 84.5411 191.471C83.6687 191.54 83.2325 191.378 83.2325 190.988C83.2325 190.53 83.2784 190.081 83.3703 189.645C83.3933 189.439 83.5309 189.336 83.7834 189.336C83.8983 189.336 84.0935 189.37 84.369 189.439C84.6445 189.485 84.8625 189.508 85.0233 189.508L88.3981 189.473ZM120.368 189.645C121.768 189.645 123.26 190.023 124.844 190.782C126.429 191.516 127.818 192.871 129.011 194.845C130.205 196.82 130.802 199.507 130.802 202.903C130.802 206.003 130.056 208.357 128.564 209.963C127.094 211.547 125.545 212.569 123.915 213.028C122.285 213.464 120.93 213.682 119.851 213.682L117.027 213.718C116.522 213.74 115.902 213.751 115.167 213.751C114.731 213.751 114.513 213.361 114.513 212.581L114.548 211.686L114.479 209.963L114.444 208.414L114.41 207.381C114.318 206.187 114.272 204.832 114.272 203.317C114.272 202.422 114.318 201.24 114.41 199.77C114.502 198.301 114.548 197.095 114.548 196.154L114.513 191.54C114.49 191.172 114.479 190.758 114.479 190.3C114.479 190.047 114.64 189.898 114.961 189.853C115.305 189.783 115.661 189.76 116.029 189.783C116.396 189.783 116.648 189.783 116.786 189.783L118.026 189.714C118.99 189.669 119.771 189.645 120.368 189.645ZM120.436 206.382C121.056 206.084 121.63 205.67 122.158 205.143C123.306 204.04 123.88 202.731 123.88 201.216C123.88 199.77 123.329 198.61 122.227 197.738C121.745 197.37 121.206 197.095 120.609 196.911C120.655 197.417 120.678 197.808 120.678 198.083C120.678 198.519 120.655 199.15 120.609 199.976C120.563 200.757 120.54 201.331 120.54 201.699C120.54 202.295 120.517 203.26 120.471 204.591C120.448 204.982 120.436 205.579 120.436 206.382ZM148.612 191.229C148.612 191.758 148.566 192.021 148.473 192.021C148.336 192.021 148.176 192.01 147.992 191.988C147.831 191.942 147.624 191.918 147.372 191.918H141.862L137.592 191.884C137.454 191.884 136.937 191.918 136.042 191.988L135.25 192.055L135.181 192.986C135.158 193.33 135.146 193.869 135.146 194.604C135.146 194.972 135.169 195.453 135.215 196.051C135.261 196.602 135.284 197.004 135.284 197.255V198.634C135.284 199 135.296 199.287 135.319 199.495C135.525 199.517 135.835 199.529 136.249 199.529H137.626C137.764 199.529 138.039 199.507 138.452 199.46C139.049 199.414 139.566 199.392 140.002 199.392C140.186 199.392 140.829 199.426 141.931 199.495L142.688 199.529C142.872 199.529 143.136 199.517 143.48 199.495C143.825 199.449 144.158 199.426 144.479 199.426L145.615 199.46C146.212 199.507 146.626 199.529 146.855 199.529C147.108 199.529 147.281 199.517 147.372 199.495L147.578 199.46C147.739 199.46 147.853 199.517 147.923 199.632C147.992 199.725 148.015 199.816 147.992 199.907C147.968 200.069 147.958 200.275 147.958 200.527C147.958 200.757 147.946 200.964 147.923 201.147C147.9 201.331 147.865 201.446 147.82 201.491C147.774 201.515 147.635 201.527 147.406 201.527L146.029 201.388C144.307 201.228 143.182 201.147 142.654 201.147C140.702 201.147 139.268 201.182 138.349 201.251C137.982 201.297 137.58 201.319 137.144 201.319C136.708 201.319 136.432 201.319 136.317 201.319C135.881 201.319 135.56 201.309 135.353 201.285L135.25 201.836C135.204 202.25 135.181 202.616 135.181 202.939C135.181 203.214 135.204 203.535 135.25 203.903C135.296 204.27 135.319 204.591 135.319 204.867L135.353 208.965L135.319 210.686C135.296 210.894 135.284 211.181 135.284 211.547C135.583 211.571 136.019 211.583 136.593 211.583C137.075 211.605 137.821 211.617 138.831 211.617L140.691 211.65C141.081 211.674 141.678 211.686 142.482 211.686C142.964 211.686 143.595 211.662 144.376 211.617L145.822 211.583C146.373 211.583 146.832 211.593 147.2 211.617C147.566 211.64 147.843 211.65 148.026 211.65C148.21 211.65 148.313 211.686 148.336 211.755C148.382 211.823 148.405 211.973 148.405 212.203C148.405 212.363 148.394 212.535 148.37 212.718C148.348 212.88 148.336 213.062 148.336 213.27C148.336 213.43 148.279 213.545 148.164 213.614C148.049 213.66 147.865 213.682 147.613 213.682C147.36 213.682 147.154 213.672 146.993 213.648C146.373 213.579 145.122 213.545 143.239 213.545C142.091 213.545 141.265 213.557 140.76 213.579C140.37 213.603 139.727 213.614 138.831 213.614L135.629 213.579C135.261 213.557 134.825 213.545 134.32 213.545C133.999 213.545 133.78 213.51 133.666 213.442C133.574 213.349 133.528 213.213 133.528 213.028L133.562 212.478C133.585 212.385 133.597 212.282 133.597 212.167C133.597 212.098 133.585 211.937 133.562 211.686C133.539 211.41 133.528 210.916 133.528 210.205C133.528 209.516 133.505 208.391 133.459 206.83C133.39 205.545 133.356 204.305 133.356 203.111C133.356 202.606 133.413 201.147 133.528 198.737C133.551 198.255 133.574 197.772 133.597 197.291C133.62 196.808 133.631 196.372 133.631 195.982C133.631 193.318 133.597 191.562 133.528 190.712C133.459 190.162 133.792 189.886 134.527 189.886C134.71 189.886 135.009 189.909 135.422 189.956C135.789 190.001 136.065 190.023 136.249 190.023L138.418 189.956C139.979 189.863 141.184 189.817 142.034 189.817C143.021 189.817 144.41 189.841 146.201 189.886C146.775 189.909 147.384 189.92 148.026 189.92C148.301 189.92 148.473 189.99 148.542 190.128C148.612 190.265 148.635 190.415 148.612 190.576C148.612 190.712 148.612 190.805 148.612 190.851V191.229ZM165.022 191.918C164.907 195.132 164.85 196.877 164.85 197.152L164.816 202.077C164.816 202.513 164.828 202.893 164.85 203.214L164.885 205.28C164.885 205.763 164.873 206.06 164.85 206.175C164.828 206.313 164.816 206.44 164.816 206.555C164.84 206.67 164.85 206.749 164.85 206.795C164.85 206.887 164.862 206.945 164.885 206.967L165.711 207.036C166.446 207.082 167.054 207.094 167.537 207.071L173.908 207.002C173.908 207.002 175.113 207.036 177.524 207.105L179.142 207.139C179.395 207.163 179.522 207.232 179.522 207.347C179.522 207.392 179.51 207.45 179.486 207.519C179.464 207.587 179.452 207.656 179.452 207.725V209.309C179.452 209.723 179.522 210.595 179.658 211.927L179.797 213.373L179.831 213.545C179.831 213.66 179.773 213.729 179.658 213.751C179.544 213.797 179.338 213.821 179.039 213.821L176.525 213.787L172.254 213.718C171.68 213.718 170.878 213.751 169.844 213.821C169.385 213.844 168.868 213.866 168.294 213.89C167.743 213.912 167.192 213.924 166.642 213.924L166.056 213.89C165.919 213.866 165.654 213.854 165.264 213.854L163.715 213.89C163.438 213.912 163.083 213.924 162.646 213.924C162.348 213.924 162.164 213.878 162.095 213.787C162.05 213.718 162.026 213.603 162.026 213.442C162.05 213.282 162.061 213.143 162.061 213.028C162.061 212.523 162.095 211.65 162.164 210.411L162.267 206.864L162.198 205.246C162.176 204.925 162.153 204.545 162.13 204.109C162.107 203.65 162.095 203.179 162.095 202.697C162.095 203.478 162.164 202.697 162.303 200.355C162.44 197.99 162.509 196.533 162.509 195.982L162.475 192.091L162.406 189.886V189.853C162.406 189.669 162.532 189.576 162.784 189.576L163.267 189.611C163.381 189.611 163.531 189.623 163.715 189.645C163.897 189.645 164.184 189.645 164.575 189.645H164.885C165.022 189.645 165.091 189.738 165.091 189.92L165.022 191.918ZM183.622 189.956C183.6 190.231 183.576 191.837 183.554 194.776C183.531 197.715 183.519 200.735 183.519 203.834C183.519 205.165 183.679 206.359 184.002 207.415C184.346 208.472 184.816 209.298 185.414 209.894C186.01 210.492 186.676 210.791 187.41 210.791C188.42 210.791 189.145 210.503 189.58 209.929C190.04 209.331 190.27 208.712 190.27 208.07L190.337 205.969C190.406 202.525 190.442 200.62 190.442 200.252C190.442 199.725 190.464 198.679 190.51 197.119C190.579 195.81 190.614 194.524 190.614 193.261C190.614 192.136 190.567 191.344 190.476 190.885C190.406 190.609 190.373 190.392 190.373 190.231C190.373 189.909 190.442 189.714 190.579 189.645C190.739 189.554 190.889 189.518 191.026 189.542C191.187 189.542 191.291 189.542 191.337 189.542C191.567 189.566 191.818 189.576 192.094 189.576C192.393 189.554 192.656 189.542 192.886 189.542H193.781C194.149 189.542 194.355 189.599 194.401 189.714C194.47 189.806 194.516 190.023 194.539 190.368C194.585 190.873 194.608 191.493 194.608 192.228C194.608 192.733 194.597 193.101 194.573 193.33C194.551 193.56 194.563 194.524 194.608 196.223C194.723 199.024 194.781 201.331 194.781 203.145V205.246C194.735 208.207 194.022 210.353 192.646 211.686C191.291 212.995 189.65 213.648 187.721 213.648C186.252 213.648 185.069 213.167 184.174 212.203C183.277 211.215 182.647 210.124 182.279 208.931C182.119 208.402 181.992 207.587 181.901 206.485C181.832 205.361 181.798 204.212 181.798 203.042C181.798 201.733 181.832 200.861 181.901 200.424C181.946 200.103 181.97 199.036 181.97 197.222C181.97 194.329 181.923 192.239 181.832 190.954C181.808 190.816 181.798 190.633 181.798 190.403C181.798 189.691 182.016 189.427 182.452 189.611L182.83 189.645C182.923 189.645 183.014 189.633 183.107 189.611C183.22 189.588 183.335 189.576 183.45 189.576C183.565 189.576 183.622 189.702 183.622 189.956ZM204.467 188.819C204.972 188.819 205.339 188.877 205.568 188.991C205.822 189.083 206.016 189.255 206.154 189.508C206.384 189.99 206.671 190.609 207.016 191.368L208.289 194.122L209.909 197.669C210.206 198.313 210.596 199.162 211.079 200.218C211.561 201.273 211.905 202.008 212.111 202.422C212.503 203.226 212.755 203.719 212.87 203.903L213.834 205.796L214.902 207.897L214.832 205.899L214.695 202.525V201.491C214.695 200.23 214.717 198.955 214.765 197.669C214.765 196.705 214.753 195.925 214.729 195.328L214.695 192.71L214.832 189.404C214.832 189.061 215.005 188.888 215.349 188.888C215.464 188.888 215.694 188.922 216.038 188.991C216.244 189.037 216.462 189.061 216.692 189.061C216.922 189.061 217.106 189.061 217.244 189.061C217.427 189.061 217.541 189.083 217.587 189.128C217.656 189.175 217.692 189.255 217.692 189.37C217.692 189.461 217.68 189.566 217.656 189.68C217.634 189.795 217.622 189.92 217.622 190.059L217.587 193.02L217.519 199.976L217.484 200.975C217.484 201.756 217.496 202.468 217.519 203.111C217.541 203.753 217.565 204.281 217.587 204.695C217.656 205.682 217.692 206.508 217.692 207.175C217.692 207.082 217.725 208.448 217.795 211.272L217.864 213.201V213.27C217.864 213.729 217.644 213.935 217.209 213.89C217.139 213.866 217.003 213.854 216.796 213.854L215.797 213.89H215.591C215.43 213.89 215.303 213.854 215.212 213.787C215.143 213.718 215.016 213.522 214.832 213.201C214.765 213.04 214.672 212.811 214.557 212.512C214.442 212.213 214.305 211.88 214.143 211.513C213.157 209.034 212.446 207.347 212.008 206.45C211.503 205.487 210.23 202.721 208.186 198.152C207.727 197.21 207.21 196.212 206.636 195.156L205.638 193.364L205.741 196.636L205.776 198.667C205.822 200.184 205.845 201.182 205.845 201.664C205.845 203.547 205.879 205.44 205.948 207.347L205.982 210.032C205.982 210.515 206.006 211.215 206.051 212.133L206.121 213.338V213.407C206.121 213.637 206.063 213.787 205.948 213.854C205.833 213.924 205.673 213.959 205.465 213.959L204.709 213.993C204.226 214.062 203.709 214.096 203.158 214.096C202.515 214.096 201.988 214.108 201.574 214.13L199.818 214.165C199.473 214.165 199.243 214.096 199.129 213.959C199.014 213.844 198.946 213.706 198.922 213.545C198.9 213.385 198.877 213.27 198.853 213.201C198.762 212.787 198.716 212.282 198.716 211.686C198.716 211.135 198.728 210.664 198.75 210.274C198.75 209.08 198.774 207.691 198.819 206.107C198.865 204.499 198.922 203.351 198.992 202.663L199.164 200.218C199.439 196.406 199.578 194.259 199.578 193.778C199.578 191.964 199.611 190.609 199.681 189.714C199.726 189.094 200.047 188.784 200.645 188.784C200.828 188.784 201 188.796 201.16 188.819C201.322 188.841 201.447 188.853 201.54 188.853L204.467 188.819ZM239.586 213.062C239.701 213.292 239.759 213.442 239.759 213.51C239.759 213.694 239.551 213.787 239.139 213.787H236.658C236.567 213.787 236.475 213.706 236.383 213.545C236.291 213.385 236.21 213.224 236.143 213.062C236.074 212.902 236.016 212.765 235.97 212.65C235.856 212.42 235.638 211.892 235.315 211.066C235.018 210.238 234.788 209.585 234.626 209.103C234.559 208.874 234.42 208.539 234.214 208.104C234.006 207.644 233.858 207.323 233.766 207.139C233.674 206.864 233.582 206.68 233.491 206.589C233.422 206.497 233.307 206.45 233.147 206.45C232.986 206.45 232.778 206.462 232.527 206.485C232.297 206.508 232.044 206.531 231.768 206.555C231.584 206.6 231.01 206.622 230.047 206.622C229.38 206.622 228.727 206.646 228.083 206.692C227.877 206.715 227.509 206.727 226.982 206.727L225.156 206.692C225.041 206.692 224.95 206.737 224.881 206.83C224.835 206.921 224.8 207.036 224.778 207.175C224.754 207.289 224.732 207.381 224.709 207.45L224.503 208.311C224.433 208.632 224.342 209.011 224.227 209.446C224.134 209.86 224.055 210.25 223.986 210.618L223.607 212.098L223.332 213.098C223.263 213.373 223.194 213.557 223.124 213.648C223.079 213.718 222.998 213.751 222.883 213.751H220.851C220.736 213.751 220.679 213.706 220.679 213.614C220.679 213.567 220.726 213.407 220.817 213.132C221.001 212.696 221.162 212.26 221.299 211.823C222.148 208.977 222.655 207.117 222.815 206.244C223.021 205.096 223.445 203.616 224.089 201.802C224.295 201.022 224.491 200.309 224.675 199.667C224.743 199.345 224.847 198.955 224.984 198.495C225.421 196.889 225.857 195.386 226.293 193.984L227.154 191.229C227.338 190.518 227.566 189.783 227.843 189.025C227.98 188.681 228.141 188.601 228.325 188.784C228.463 188.876 228.566 189.037 228.635 189.267C228.703 189.496 228.75 189.657 228.772 189.748C228.841 190.023 229.45 191.402 230.598 193.881C231.057 194.822 231.551 196.051 232.079 197.566C232.309 198.232 232.939 199.667 233.973 201.871C234.501 202.95 234.846 203.695 235.006 204.109C235.373 204.913 236.361 206.864 237.967 209.963L238.381 210.824C238.909 211.995 239.31 212.741 239.586 213.062ZM230.563 201.699C230.725 201.675 230.861 201.664 230.976 201.664C231.091 201.664 231.182 201.652 231.252 201.63C231.321 201.606 231.355 201.572 231.355 201.527C231.355 201.481 231.321 201.388 231.252 201.251C231.137 201.044 230.873 200.47 230.46 199.529C230.047 198.564 229.76 197.841 229.598 197.36C229.37 196.808 229.186 196.349 229.048 195.982C228.933 195.614 228.841 195.362 228.772 195.224C228.727 195.109 228.669 194.994 228.6 194.879C228.554 194.764 228.509 194.673 228.463 194.604C228.416 194.536 228.37 194.501 228.325 194.501C228.255 194.501 228.176 194.673 228.083 195.018C228.015 195.362 227.958 195.626 227.911 195.81C227.499 197.141 227.2 198.152 227.016 198.84C226.924 199.184 226.786 199.61 226.604 200.115C226.442 200.596 226.327 200.929 226.259 201.113C226.19 201.343 226.154 201.527 226.154 201.664C226.154 201.802 226.259 201.871 226.465 201.871C226.947 201.871 227.681 201.859 228.669 201.836C229.679 201.79 230.311 201.745 230.563 201.699Z" fill="#1854A2"/>
</g>
</svg>
