<?xml version="1.0" encoding="UTF-8"?>
<svg id="Capa_1" data-name="Capa 1" xmlns="http://www.w3.org/2000/svg" viewBox="0 0 200 200">
  <defs>
    <style>
      .cls-1 {
        fill: #f8f8e4;
        stroke-width: .88px;
      }

      .cls-1, .cls-2 {
        stroke: #f8f8e4;
        stroke-miterlimit: 10;
      }

      .cls-3 {
        fill: #1854a2;
      }

      .cls-2 {
        stroke-width: 5.29px;
      }

      .cls-2, .cls-4 {
        fill: #f8f8e4;
      }
    </style>
  </defs>
  <rect class="cls-3" width="200" height="200"/>
  <g>
    <path class="cls-2" d="M122.12,44.06c-16.96,12.69-28.73,42.13-13.6,70.82,14.88,28.21,45.23,31.8,63.85,29.86-19.32,16.61-64.73,16.07-84.49-15-21.82-34.3-1.61-72.45,34.25-85.67Z"/>
    <polygon class="cls-1" points="30.79 155.5 38.6 155.5 84.88 89.92 84.88 79.57 30.79 155.5"/>
    <polygon class="cls-4" points="81.13 95.5 68.11 155.5 72.08 155.5 84.88 95.5 81.13 95.5"/>
    <polygon class="cls-4" points="63.87 116.43 80.69 116.43 76.77 122.17 58.52 122.17 63.87 116.43"/>
    <polygon class="cls-4" points="49.54 138.69 74.76 138.69 72.47 141.65 44.96 141.65 49.54 138.69"/>
  </g>
</svg>