<svg width="19" height="19" viewBox="0 0 19 19" fill="none" xmlns="http://www.w3.org/2000/svg">
<path d="M7.12787 2.70446C6.67503 2.06321 6.04803 1.77425 5.38303 1.78138C4.75207 1.78771 4.13774 2.05767 3.62474 2.41709C3.1015 2.78547 2.65533 3.25261 2.31137 3.79221C1.98678 4.306 1.75245 4.91321 1.78412 5.50617C1.93691 8.35854 3.54162 11.4065 5.79549 13.6619C8.04778 15.915 11.0553 17.4809 14.0922 17.1817C14.6875 17.1231 15.2504 16.8199 15.7103 16.4335C16.1861 16.0306 16.5748 15.535 16.8527 14.9769C17.1219 14.429 17.2826 13.7973 17.1939 13.1822C17.1021 12.5409 16.7434 11.9678 16.084 11.5878C15.9474 11.5085 15.8122 11.4267 15.6787 11.3423C15.5599 11.2687 15.4332 11.1888 15.2797 11.0969C14.966 10.9035 14.6349 10.7397 14.2909 10.6077C13.937 10.4786 13.5324 10.3939 13.1113 10.4517C12.6751 10.5119 12.2697 10.7177 11.919 11.0866C11.6491 11.3716 11.2517 11.4603 10.6927 11.2988C10.1243 11.1341 9.48466 10.7256 8.92891 10.173C8.37316 9.62205 7.95278 8.97763 7.77307 8.39575C7.59574 7.81942 7.67412 7.39588 7.9512 7.10375C8.32566 6.7095 8.52516 6.27092 8.56712 5.807C8.60828 5.35575 8.49587 4.93142 8.33516 4.56092C8.09449 4.00755 7.68599 3.45734 7.36616 3.02825C7.28574 2.92098 7.20657 2.81278 7.12866 2.70367" fill="#E09245"/>
</svg>
