<svg width="95" height="89" viewBox="0 0 95 89" fill="none" xmlns="http://www.w3.org/2000/svg">
<g filter="url(#filter0_d_71_132)">
<ellipse cx="47.0393" cy="40.4643" rx="43.0393" ry="40.4643" fill="#9243A1"/>
</g>
<path d="M41.2558 22.1416C40.0109 20.4126 38.2871 19.6335 36.4588 19.6527C34.7242 19.6698 33.0352 20.3977 31.6249 21.3668C30.1863 22.36 28.9597 23.6196 28.0141 25.0745C27.1217 26.4599 26.4775 28.0971 26.5645 29.6959C26.9846 37.3868 31.3963 45.605 37.5928 51.6864C43.7849 57.7615 52.0534 61.9837 60.4024 61.1768C62.0391 61.0188 63.5866 60.2013 64.8512 59.1596C66.1591 58.0731 67.2277 56.7367 67.9919 55.232C68.7319 53.7548 69.1737 52.0514 68.9299 50.3929C68.6774 48.6639 67.6915 47.1184 65.8785 46.0938C65.5028 45.8801 65.1313 45.6595 64.7641 45.4321C64.4376 45.2336 64.0894 45.018 63.6672 44.7704C62.8047 44.2489 61.8946 43.8072 60.9487 43.4512C59.9758 43.1033 58.8636 42.8749 57.7058 43.0307C56.5065 43.1929 55.3921 43.7479 54.428 44.7426C53.6858 45.5111 52.5932 45.7501 51.0566 45.3147C49.4939 44.8707 47.7352 43.7693 46.2073 42.2793C44.6795 40.7936 43.5237 39.0561 43.0297 37.4872C42.5421 35.9332 42.7576 34.7912 43.5194 34.0035C44.5489 32.9405 45.0973 31.7579 45.2127 30.5071C45.3259 29.2903 45.0168 28.1462 44.575 27.1472C43.9133 25.6551 42.7903 24.1716 41.911 23.0147C41.6899 22.7254 41.4722 22.4337 41.258 22.1395" fill="white"/>
<defs>
<filter id="filter0_d_71_132" x="0" y="0" width="94.0781" height="88.9287" filterUnits="userSpaceOnUse" color-interpolation-filters="sRGB">
<feFlood flood-opacity="0" result="BackgroundImageFix"/>
<feColorMatrix in="SourceAlpha" type="matrix" values="0 0 0 0 0 0 0 0 0 0 0 0 0 0 0 0 0 0 127 0" result="hardAlpha"/>
<feOffset dy="4"/>
<feGaussianBlur stdDeviation="2"/>
<feComposite in2="hardAlpha" operator="out"/>
<feColorMatrix type="matrix" values="0 0 0 0 0.672194 0 0 0 0 0.458695 0 0 0 0 0.706731 0 0 0 1 0"/>
<feBlend mode="normal" in2="BackgroundImageFix" result="effect1_dropShadow_71_132"/>
<feBlend mode="normal" in="SourceGraphic" in2="effect1_dropShadow_71_132" result="shape"/>
</filter>
</defs>
</svg>
