<svg width="20" height="20" viewBox="0 0 20 20" fill="none" xmlns="http://www.w3.org/2000/svg">
<g clip-path="url(#clip0_407_45)">
<path d="M16.2729 3.99918C17.2829 6.17252 17.0538 8.73085 15.9354 10.81C15.0179 12.5158 13.6488 13.9267 12.5204 15.4883C12.0046 16.2034 11.4838 16.9467 11.1296 17.7608C11.0121 18.0317 10.9104 18.3092 10.8104 18.5875C10.7096 18.865 10.6238 19.1483 10.5271 19.4275C10.4363 19.6892 10.3304 19.9975 10.0046 20H9.99878C9.61045 19.9992 9.51628 19.5583 9.41961 19.2608C9.18295 18.5325 8.93545 17.8333 8.57045 17.1567C8.14545 16.37 7.61628 15.6425 7.07878 14.9308L16.2729 3.99918ZM7.12128 6.42085L3.82211 10.3433C4.42545 11.6267 5.33961 12.7292 6.21461 13.8267C6.42072 14.085 6.62545 14.345 6.82878 14.6067L10.9821 9.66918L10.9579 9.67752C9.50711 10.1783 7.88211 9.43502 7.29795 8.02168C7.21818 7.82978 7.15978 7.62969 7.12378 7.42502C7.07128 7.06085 7.05961 6.79085 7.12045 6.42668L7.12128 6.42085ZM4.57711 2.62418L4.57461 2.62752C2.95211 4.68252 2.67378 7.52752 3.64378 9.93585L7.63128 5.19502L7.58295 5.15335L4.57711 2.62418ZM12.2179 0.363349L9.01961 4.16585L9.04211 4.15752C10.3754 3.69835 11.8779 4.28252 12.5588 5.51252C12.7054 5.77835 12.8279 6.08168 12.8729 6.38335C12.9296 6.75502 12.9438 7.02752 12.8829 7.40002L12.8804 7.41335L16.0771 3.61252C15.2419 2.08879 13.8686 0.931182 12.2254 0.365849L12.2179 0.363349ZM7.88878 4.89002L11.8021 0.237516L11.7629 0.227516C11.1839 0.0752113 10.5875 -0.00126134 9.98878 1.57334e-05C9.01929 0.00914651 8.06216 0.21862 7.17748 0.615283C6.29281 1.01195 5.4997 1.58723 4.84795 2.30502L4.83461 2.32002L7.88878 4.89002Z" fill="#E29A50"/>
</g>
<defs>
<clipPath id="clip0_407_45">
<rect width="20" height="20" fill="white"/>
</clipPath>
</defs>
</svg>
