<svg width="76" height="71" viewBox="0 0 76 71" fill="none" xmlns="http://www.w3.org/2000/svg">
<path d="M43.6619 50.1943C43.7197 50.0475 43.4486 49.8311 43.6469 49.9874C43.7088 50.1694 43.7404 50.3153 43.6619 50.1943Z" fill="#C397C8"/>
<path d="M18.2694 61.9946C18.2372 60.714 18.9811 61.6782 19.1013 60.8077C19.1285 60.7388 19.2773 61.4234 19.3148 61.24C19.3746 60.2214 20.0424 60.5116 20.6401 60.997L20.6658 61.1797C20.7838 61.27 20.692 60.6534 20.7931 60.698C20.8249 60.8121 20.8187 60.8807 20.8906 61.0172C20.8067 60.6636 20.9838 60.7989 20.9358 60.5135C21.0097 60.6271 21.0998 60.912 21.1716 61.0485L21.0939 60.6262C20.9317 59.6214 21.4157 60.5541 21.446 59.9819C21.4684 60.0846 21.4717 60.1646 21.5171 60.2442C21.6113 59.5455 21.9848 59.4843 22.2376 59.1271C22.2768 59.2753 22.3384 59.5263 22.4082 59.6857C22.2884 59.2638 22.3544 59.1144 22.4183 58.9879C22.5917 59.3978 22.4383 58.5302 22.5997 58.7229L22.6221 58.8256C22.5505 58.3346 22.8025 59.041 22.697 58.4588L22.8577 58.7773C22.6932 58.15 23.0666 59.0267 23.0322 58.7068L22.9909 58.5815C22.9958 58.4098 23.1279 58.6944 23.1497 58.5683L23.1972 58.625C23.2462 58.43 23.43 58.7254 23.2722 58.2582C23.4403 58.6109 23.2095 58.4876 23.4474 58.9997C23.6869 58.3224 24.1371 58.226 24.5228 58.0275C24.6232 58.198 24.6822 58.2431 24.7404 58.414C24.7507 58.2995 24.86 58.2526 24.8195 58.0014C24.808 58.013 24.9252 58.229 24.9558 58.2401C25.0792 58.3875 24.8693 57.6806 25.0117 57.8507C25.0205 57.9878 25.0692 58.1474 25.1275 58.3184C25.0687 57.9187 25.1834 57.9289 25.2283 57.7797C25.2412 57.8711 25.2371 57.9169 25.2974 58.0649C25.2543 57.6079 25.4963 58.0742 25.4809 57.777L25.5499 58.0622C25.7778 58.3342 25.4024 57.4805 25.5679 57.6274C25.5692 57.7303 25.6125 57.8328 25.6444 57.9468C25.5769 57.41 25.7907 57.4878 25.8418 57.2699C25.8492 57.3041 25.8736 57.3839 25.8736 57.3839C25.968 57.2686 26.1282 57.3583 26.1739 57.0834C26.2593 57.1854 26.3763 57.756 26.4538 57.595C26.2717 57.048 26.5668 57.2736 26.293 56.6932C26.4151 56.7377 26.6459 56.861 26.6549 56.6436C26.6764 56.8721 26.9225 57.2926 26.8627 57.3733L27.0349 57.6803C27.0985 57.9083 26.9548 57.6354 27.0564 57.9088C27.0911 57.8741 27.1368 57.5991 27.2053 57.6556C27.1655 57.2786 27.0242 56.6282 27.1302 56.5012C27.1402 56.7413 27.3619 57.082 27.3516 57.1965L27.1692 56.0662C27.1692 56.0662 27.3311 56.4876 27.336 56.316C27.2852 56.1793 27.2839 56.0764 27.2637 55.9508C27.3016 55.9962 27.3779 55.7323 27.5832 56.2562C27.6699 56.4611 27.5593 56.4051 27.6596 56.5756C27.7269 56.5292 27.6802 56.3467 27.7474 56.3002L27.7718 56.38C27.8403 56.4364 27.8406 56.0819 27.6853 55.8205C27.6432 55.8209 27.8039 56.1395 27.711 56.0032C27.6461 55.6722 27.6889 55.546 27.7772 55.4993C27.7785 55.6022 27.8293 55.7389 27.8781 55.8985C27.837 55.4186 27.8956 55.2349 27.9467 55.0171C27.864 54.7664 28.0603 55.5077 27.998 55.3825C28.2564 55.6657 28.1186 54.7408 28.4258 55.1835C28.4217 55.2293 28.2998 54.8303 28.3147 54.8988C28.3989 54.8979 28.5133 55.2626 28.5161 55.1139C28.5913 55.3304 28.5454 55.0221 28.5747 54.9303C28.5375 54.7591 28.618 55.0328 28.5929 55.0788C28.6019 54.8614 28.7482 54.4023 28.9897 54.6399C28.9389 54.5032 28.8937 54.0691 28.9358 54.0686L29.0313 54.4107C29.1411 54.5925 29.1237 54.3182 29.2348 54.603C29.1686 54.1691 29.0749 55.0965 29.0656 54.7306C29.1883 55.0038 29.0254 54.1249 29.1621 54.5923C29.2199 54.5345 29.1612 54.1348 29.3354 54.4189C29.2974 54.3736 29.4396 54.8981 29.4858 54.8519C29.5687 54.7481 29.4601 54.6692 29.4935 54.5316L29.4868 54.3715C29.3798 54.041 29.592 54.3704 29.4335 54.029C29.5466 54.2908 29.5171 53.7993 29.6898 54.335L29.8191 54.7683C29.8191 54.7683 29.736 54.2888 29.6914 54.0834C29.7199 54.1174 29.7442 54.1972 29.7802 54.2654C29.5546 53.616 29.9064 54.2641 29.7738 53.7508C29.9352 53.9435 30.0135 53.6568 30.189 54.0438C30.1885 53.815 30.1711 53.5407 30.2986 53.6423C30.3135 53.7107 30.2904 53.7339 30.3297 53.8821C30.4511 54.0524 30.4044 53.8699 30.4051 53.7441C30.4275 53.8468 30.6384 54.0732 30.7672 54.2777C30.7667 54.049 30.6176 53.7189 30.554 53.4909C30.8468 54.0939 30.5992 52.9871 30.8771 53.5217C30.8784 53.6246 30.8863 53.8876 31.0003 54.0236C31.2931 54.6266 30.9539 53.4866 31.1722 53.7473L30.9554 53.2349C31.1181 53.5306 30.9998 52.857 31.1725 53.3927C31.1394 53.1758 31.3517 53.5052 31.1559 52.9926C31.4713 53.3438 31.461 52.5204 31.8975 53.3964C31.8963 53.2935 31.9858 53.3497 31.8727 53.0878C31.729 52.8149 31.8942 53.3164 31.8149 53.1457C31.838 53.1225 31.7777 52.9745 31.7628 52.906C31.8483 53.0081 31.9114 53.0074 32.0177 53.4637C32.236 53.7244 31.8283 52.5279 32.038 52.6515C32.1132 52.868 32.1491 52.9362 32.1742 52.8902L32.127 52.479C32.2492 52.5234 32.3595 52.9339 32.495 53.2985C32.5243 53.2067 32.599 53.1944 32.5184 52.9208L32.7435 53.3416C32.5808 53.0459 32.7124 53.1017 32.6901 52.999L32.6914 53.1019C32.7517 53.25 32.7735 53.1239 32.7892 53.0666C32.7045 52.8387 32.6149 52.7825 32.5559 52.7374C32.5187 52.5663 32.5798 52.5885 32.5467 52.3715C32.6611 52.7363 32.7176 52.5756 32.7787 52.5978C32.8472 52.6542 32.7158 52.2439 32.7348 52.2666C32.8025 52.4488 32.819 52.2657 32.8785 52.5395C32.8839 52.5966 32.7877 52.3804 32.8038 52.5518C32.8872 52.6767 32.9963 52.9843 32.9768 52.7329C32.9627 52.5386 32.7133 52.0381 32.8862 52.2192C32.8875 52.3221 32.9383 52.4588 32.9681 52.5957L33.1241 52.7313L33.0055 52.4123C33.051 52.4919 33.0489 52.5148 33.0658 52.5604C32.9609 52.207 33.1549 52.3879 33.0425 52.0002C33.0792 51.9426 33.2155 52.1813 33.2671 52.1922L33.2861 52.2149C33.3959 52.3967 33.4103 52.2364 33.3792 51.9966L33.4036 52.0764C33.4036 52.0764 33.4845 51.9955 33.4493 51.8014C33.6107 51.9941 33.9202 52.9973 33.8445 52.552C33.9023 52.4942 33.7337 51.9127 33.6354 51.7194C33.843 51.8658 33.7912 51.2716 34.0773 51.7146C34.0476 51.5777 34.0022 51.4981 34.0104 51.4065C34.2283 51.4385 34.2511 50.8321 34.6227 51.3771C34.6178 51.5487 34.7413 51.6961 34.809 51.8783C34.7421 51.5702 34.9738 52.151 34.8085 51.6496C34.6974 51.3649 34.6466 51.2282 34.5612 51.1261C34.6122 50.9083 34.7773 50.8265 34.9346 51.0649C34.8396 50.9516 34.8383 50.8487 34.8371 50.7458C34.9949 51.213 35.1075 51.2461 35.0934 51.0518L35.0034 50.7668L35.1471 51.0398C35.1458 50.9369 34.9595 50.4356 35.1168 50.6741C35.1602 50.7766 35.213 50.8904 35.249 50.9586C35.22 50.6959 35.1654 50.2504 35.3247 50.466L35.5328 50.8412C35.5328 50.8412 35.5005 50.4985 35.4035 50.408C35.607 50.6002 35.7027 50.5878 35.8729 50.9176C35.7392 49.9469 36.0082 49.761 36.2764 49.701L36.3516 49.9175C36.4845 50.0762 36.2392 49.5298 36.3436 49.6545C36.3978 49.8712 36.5592 50.0639 36.5977 50.338C36.7706 50.5191 36.5736 49.9036 36.5954 49.7776C36.5053 49.4926 36.619 49.9832 36.493 49.63C36.4707 49.5273 36.7006 49.7765 36.5598 49.3548C36.6411 49.5026 36.7386 49.8218 36.7969 49.9928L36.7753 49.7642C37.0289 50.219 36.9531 50.7116 37.2595 51.2802L37.2888 51.1884C37.5043 51.5978 37.3426 51.7596 37.5259 51.8263C37.5043 51.5978 37.3093 50.9594 37.1974 50.8005C37.2655 50.6282 36.869 49.7747 36.9973 49.7504C37.1241 49.9778 36.9239 49.8656 37.073 50.1957C37.2662 50.5024 37.1166 49.9436 37.2136 50.034C37.0997 49.898 36.9819 49.4532 36.9902 49.3616C37.1231 49.5203 37.1005 49.7722 37.2057 49.7711C37.1231 49.5203 37.1321 49.3029 36.9971 49.1671C36.817 48.5972 37.1457 49.2685 37.0279 48.8237C37.2055 49.1878 37.2804 49.7588 37.4459 49.9057C37.2894 49.5414 37.371 49.3347 37.1121 48.8228C37.1881 48.9135 37.2992 49.1982 37.3723 49.4376C37.5127 49.6305 37.2391 48.6956 37.5427 49.4129L37.4093 49.0255C37.4832 49.139 37.5286 49.2186 37.6384 49.4004C37.6826 49.3771 37.5866 48.8063 37.8088 49.3757C37.794 49.3073 37.9128 49.2717 37.7257 48.8963C37.5643 48.7036 37.7696 49.2275 37.5107 48.7156C37.7262 49.125 37.5841 48.6004 37.5679 48.429L37.6641 48.6453C37.6513 48.5539 37.7334 48.5759 37.6508 48.3252C37.6806 48.4621 37.7524 48.5986 37.7904 48.6439L37.6855 48.2905C37.7155 48.0729 37.9382 48.8711 37.9832 48.7219L38.0196 49.0189C38.0196 49.0189 38.1674 49.2461 38.1682 49.1203C38.0707 48.8011 37.9467 48.425 37.8851 48.174C37.8785 48.014 38.0342 48.5041 37.9693 48.1731L38.0491 48.5726C38.0714 48.6752 38.2891 49.0618 38.3563 49.0153C38.3571 48.8895 38.2529 48.4102 38.1179 48.2744C38.141 48.2513 38.2739 48.41 38.326 48.6496C38.371 48.5005 38.1864 48.3309 38.1859 48.1022C38.2958 48.284 38.4836 48.5336 38.6599 48.7947L38.7885 49.3538L38.8231 49.3191C38.9293 49.7754 38.9953 49.6261 39.1226 50.0822C39.17 50.1388 39.1654 49.9559 39.1452 49.8303C38.7818 49.1937 38.8778 48.8267 38.5966 48.2121C38.6497 47.9714 39.2722 49.7031 39.0205 48.6422C38.9392 48.4944 38.8065 47.9811 38.7975 48.1985C38.9007 48.2203 38.6046 47.5373 38.7965 47.7411C38.8329 48.038 39.1219 48.3323 39.1671 48.7664C39.0919 48.5499 39.0531 48.6304 39.0564 48.7104C39.1832 48.9378 39.2935 49.3484 39.3818 49.3017C39.4111 49.2099 39.4783 49.1634 39.3387 48.8446C39.1917 48.4917 39.2694 48.914 39.1666 48.5377C39.2135 48.3656 39.4609 48.8891 39.2354 48.2396C39.1966 48.3201 39.0285 47.9673 38.9364 47.7052L38.9433 47.5107L39.026 47.7615C39.2051 47.8739 38.8871 47.3169 39.025 47.304L39.269 47.7474C39.4099 48.1691 39.0362 47.647 39.3134 48.3074C39.3881 48.2951 39.2831 47.9417 39.4181 48.0775C39.4235 48.1346 39.4099 48.1691 39.4248 48.2376C39.4553 48.2487 39.8402 49.1138 39.7348 48.5316C39.7132 48.3031 39.6521 48.2809 39.558 48.0417C39.645 47.8921 39.5739 47.6298 39.6337 47.5491C39.8105 48.039 39.7831 47.5246 39.8926 48.061C39.7374 47.7996 39.5798 47.9157 39.724 48.4173C39.9904 48.9635 39.5998 48.3958 39.7989 48.9884C39.8967 48.953 40.1189 49.5225 40.287 49.8752C40.3175 49.8864 40.2803 49.7152 40.2865 49.6465C40.1605 49.2933 40.1279 49.3051 39.9809 48.9521C40.1241 48.9963 40.1467 48.7445 40.0648 48.3679C40.1672 48.5155 40.2932 48.8687 40.266 48.9376C40.3551 48.7651 40.5044 48.7406 40.6592 48.7733C40.3487 48.2505 40.7408 48.5665 40.4968 48.1231C40.3787 48.0329 40.1706 47.6577 40.1016 47.3725C40.1532 47.3834 40.2053 47.623 40.2581 47.7368C40.1837 47.3945 40.5327 48.1914 40.3905 47.6668C40.3469 47.9189 40.6425 48.3732 40.8119 48.8288C40.7965 48.5316 40.9304 49.1478 41.0187 49.1011C41.0033 48.8039 41.0259 48.5521 41.0804 48.4142C41.3747 48.7656 41.3778 48.2624 41.4682 48.1928C41.6201 48.3741 41.7717 48.91 41.8728 48.9547C41.9306 48.8969 41.6044 48.4315 41.7984 48.6124L41.8303 48.7264C41.81 48.6008 42.1559 48.9631 41.8965 48.2225L42.0882 48.7808C42.0882 48.7808 42.0964 48.6893 42.0815 48.6208C42.1493 48.8031 42.2422 48.9393 42.2509 49.0765C42.4726 49.4172 42.3569 48.9495 42.4241 48.903L42.2519 48.5961C42.2597 48.2758 42.476 48.5594 42.5345 48.3758L42.6531 48.6947L42.641 48.4775C42.7501 48.7852 42.8925 48.9552 42.8119 48.6816L42.9443 49.5494C42.8114 49.3907 42.834 49.1388 42.6923 48.843C42.5581 48.5814 42.4921 48.7308 42.5896 49.0499C42.6412 49.0608 42.6264 48.9924 42.6061 48.8668C42.7985 49.2993 42.7239 49.3116 42.8119 49.6194C42.835 49.5963 42.9089 49.7099 42.8581 49.5732C42.9102 49.8128 42.8734 49.8704 42.8062 49.9168C42.7826 49.7112 42.672 49.6552 42.6422 49.5183C42.7967 49.9055 42.7823 50.0658 42.6412 49.9987C42.4046 49.5895 42.5968 50.3766 42.4556 50.3095C42.3358 49.8876 42.2614 49.5453 42.2568 49.3623C42.1143 49.1923 42.199 49.4201 42.0566 49.2501C42.1446 49.558 42.3024 50.0252 42.2934 50.2426L42.1728 49.9465C42.1564 50.1297 42.3278 50.5625 42.2036 50.5409C41.9877 50.486 41.8322 50.5792 41.6923 50.615L41.5812 50.3303C41.7647 50.9802 41.4452 50.6749 41.468 51.0063C41.2013 50.8147 41.2375 51.4662 40.9629 51.0117C40.7827 51.3796 40.6236 51.7473 40.2943 51.7852L40.1765 51.3404C40.2509 51.6827 40.0498 51.113 40.0205 51.2048C40.2137 51.5115 40.1247 51.6841 40.1842 51.9579C39.9237 51.6976 39.9037 52.1553 39.9149 52.4983L39.8038 52.2136C39.9072 52.8187 39.5844 52.4333 39.4086 52.4008C39.3442 52.2986 39.21 52.037 39.1848 52.083C39.2964 52.5965 39.2448 52.5856 39.2445 52.9401C39.1563 52.9868 38.992 52.9429 38.836 52.8073C38.7831 53.6313 38.3006 53.3849 38.1229 53.9586L37.9739 53.6286C37.9453 54.5324 37.3035 54.0704 37.172 54.5979L36.9729 54.0053C36.8169 53.8697 36.8451 54.2583 37.0186 54.6682C36.8625 54.5326 36.9089 55.0696 36.6765 54.6146C36.5448 54.5589 36.6687 54.935 36.6259 55.0612C36.3646 54.9268 36.3259 55.0073 36.2021 55.2145L36.2537 55.2253C36.224 55.0884 36.1318 54.8263 36.0803 54.8155C36.0733 55.01 35.7992 54.7842 36.1185 55.4441C35.7895 55.1274 35.8282 55.9848 35.4694 55.5311C35.5582 55.7132 35.5215 55.7707 35.5512 55.9077C35.3957 56.0008 35.0972 55.6952 35.0949 56.0727C35.0284 55.9933 35.0205 55.7304 34.9458 55.7426C34.9376 55.8342 35.0284 55.9933 35.0277 56.1192C34.9098 56.6122 34.3856 56.0117 34.1987 56.2195C33.9369 56.7942 33.4508 56.8223 33.0799 57.0893L33.0291 56.9526C33.0904 57.5581 32.5284 56.5577 32.7144 57.4135C32.631 57.2886 32.5787 57.4035 32.4981 57.1299C32.5222 57.5642 32.0862 56.917 32.1095 57.4772C32.119 57.4885 32.1326 57.454 32.1178 57.3856C31.8552 57.1482 31.8637 57.6399 31.6181 57.4481C31.6032 57.3797 31.6188 57.3223 31.5796 57.174C31.4223 56.9356 31.6558 57.848 31.3691 57.1763C31.3345 57.211 31.4625 57.5413 31.4761 57.5068C31.0424 57.42 30.8186 58.04 30.5142 58.3864C30.1084 58.1048 30.1023 57.2356 30.0679 57.8536C30.0055 57.7285 30.1485 58.1272 30.0882 57.9792C30.0676 58.2082 29.6984 57.2857 29.7707 57.6509C29.9442 58.0608 29.8113 57.9021 29.9034 58.1642C29.6578 57.9724 29.4802 57.6083 29.4779 57.9858L29.4142 57.7577C29.4884 58.4546 29.1953 58.2061 29.3243 58.9939C28.5615 59.5282 27.9235 60.3127 27.1553 60.7899C26.3235 61.039 25.6726 61.7322 24.7371 61.7308C24.3614 61.2316 24.3478 61.2661 24.2233 61.5991C24.201 61.4964 24.2031 61.4735 24.1692 61.3823C24.3155 61.8611 24.0422 61.5095 24.1694 61.9656C23.8496 62.0148 23.6166 62.2689 23.3191 62.4208C23.3463 62.3519 23.2571 61.9411 23.1993 61.9989L23.2432 62.3301L23.1924 62.1934C23.1924 62.1934 23.2036 62.5364 23.2965 62.6727C22.6585 63.4572 21.6006 62.8281 20.8861 63.2932C20.6438 63.1815 20.4487 63.4809 20.285 63.6657C19.5107 63.2737 18.843 62.9835 18.3889 63.7089C18.3889 63.7089 18.0946 62.4197 18.2463 62.0177L18.2694 61.9946Z" fill="#C397C8"/>
<path d="M43.5742 50.2969C43.4486 50.0659 43.322 49.9696 43.2426 49.6034C43.3456 49.8347 43.4814 50.0777 43.5742 50.2969Z" fill="#C397C8"/>
<path d="M40.688 48.6528C40.688 48.6528 40.6175 48.5683 40.5873 48.5322C40.6118 48.5076 40.532 48.2773 40.6104 48.3981C40.5859 48.4227 40.642 48.5438 40.6758 48.665L40.688 48.6528Z" fill="#C397C8"/>
<path d="M40.1836 48.7354C40.1051 48.5094 40.1353 48.2827 40.1828 48.2347L40.1836 48.7354Z" fill="#C397C8"/>
<path d="M39.3789 48.04C39.2603 47.871 39.2366 47.7618 39.2934 47.7491C39.3394 47.8581 39.3552 47.9309 39.3789 48.04Z" fill="#C397C8"/>
<path d="M39.5692 48.547C39.5692 48.547 39.4642 48.4498 39.3946 48.3396C39.4673 48.5364 39.4341 48.1656 39.5692 48.547Z" fill="#C397C8"/>
<path d="M38.3909 48.3455C38.3909 48.3455 38.3922 48.5847 38.2819 48.3463C38.3667 48.5012 38.2887 48.0113 38.3909 48.3455Z" fill="#C397C8"/>
<path d="M38.1121 48.8833C38.1121 48.8833 38.0718 48.835 38.0876 48.9079C38.0171 48.8234 37.9775 48.6413 38.002 48.6167L38.1221 48.8953L38.1121 48.8833Z" fill="#C397C8"/>
<path d="M30.8553 53.355L30.8782 53.2213L30.9477 53.4389L30.8553 53.355Z" fill="#C397C8"/>
<path d="M27.4863 54.8606C27.4932 55.0317 27.3815 54.6539 27.3612 54.6297C27.3983 54.5926 27.447 54.9222 27.4863 54.8606Z" fill="#C397C8"/>
<path d="M26.1025 56.769L26.1147 56.7568L26.252 57.2168L26.1025 56.769Z" fill="#C397C8"/>
<path d="M38.9929 38.8367C39.1297 38.8234 39.2338 38.4958 39.1685 38.7441C39.0304 38.8811 38.9174 38.9728 38.9929 38.8367Z" fill="#C397C8"/>
<path d="M16.434 21.7356C17.3236 20.6865 17.1244 22.081 17.8307 21.4816C17.8893 21.4448 17.4973 22.1263 17.651 22.016C18.4286 21.2343 18.6552 22.0681 18.6758 22.9762L18.5501 23.1469C18.5574 23.3164 18.951 22.7438 18.9949 22.8766C18.9399 22.9982 18.8813 23.0351 18.81 23.2173C19.0192 22.8522 19.0403 23.1185 19.2067 22.8627C19.1597 23.0206 19.0012 23.3126 18.9642 23.4825L19.2199 23.0927C19.8549 22.1669 19.4771 23.3207 19.9124 22.9052C19.8495 22.9905 19.7988 23.0636 19.7682 23.1608C20.3509 22.7077 20.624 23.0082 21.0497 22.9561C20.9604 23.0901 20.8041 23.3579 20.7227 23.5281C20.9705 23.1021 21.12 23.0403 21.2452 23.0029C21.0376 23.477 21.5954 22.673 21.5579 22.9761L21.485 23.0493C21.8315 22.6346 21.4554 23.3887 21.8225 22.8648L21.6678 23.2416C22.0534 22.6328 21.5896 23.6298 21.8146 23.3372L21.8817 23.2034C22.0154 23.0691 21.8748 23.4094 21.9921 23.3357L21.9636 23.4086C22.1717 23.31 22.0491 23.6986 22.3133 23.2119C22.1442 23.6251 22.093 23.3228 21.8405 23.9305C22.5071 23.6584 22.8447 23.9825 23.235 24.2093C23.1716 24.4279 23.1531 24.5128 23.0596 24.6953C23.1447 24.6098 23.2593 24.6936 23.4336 24.4741C23.4336 24.4741 23.3116 24.7295 23.3195 24.7657C23.2783 24.9841 23.7046 24.2901 23.6492 24.5449C23.5398 24.6549 23.4384 24.8011 23.3449 24.9835C23.6286 24.6541 23.6745 24.7627 23.8362 24.6887C23.7754 24.7498 23.7268 24.7986 23.6476 24.9446C23.9798 24.5664 23.7537 25.1254 23.9724 24.9055L23.7838 25.1615C23.7035 25.5739 24.1653 24.6011 24.142 24.8678C24.0691 24.941 24.0041 25.0506 23.9391 25.1602C24.3322 24.7208 24.3876 24.9747 24.5857 24.864C24.5493 24.9006 24.5207 24.9736 24.5207 24.9736C24.6639 24.9845 24.6671 25.2024 24.9238 25.0549C24.8889 25.2006 24.4996 25.7246 24.6692 25.6869C25.0062 25.1269 24.9882 25.5873 25.3136 24.9063C25.3554 25.0634 25.3744 25.3539 25.5524 25.2192C25.3823 25.3902 25.1805 25.9248 25.0696 25.9257L24.9269 26.2902C24.7748 26.5095 24.9153 26.1692 24.7568 26.4612C24.8012 26.4609 25.0579 26.3134 25.0373 26.4225C25.3168 26.1416 25.769 25.5322 25.9243 25.5309C25.742 25.7141 25.5809 26.1636 25.4858 26.2371L26.3004 25.2855C26.3004 25.2855 26.0405 25.7237 26.1821 25.6256C26.2613 25.4796 26.3564 25.4061 26.4435 25.2964C26.415 25.3693 26.6897 25.2701 26.3648 25.8178C26.2449 26.049 26.2254 25.8917 26.162 26.1102C26.2364 26.1459 26.3521 25.9633 26.4367 26.011L26.3759 26.0721C26.3875 26.1931 26.6749 25.9484 26.8133 25.6324C26.7832 25.5963 26.6184 25.961 26.6675 25.779C26.8925 25.4864 27.0399 25.4488 27.1023 25.4967C27.0294 25.57 26.9279 25.7162 26.8265 25.8624C27.191 25.496 27.3727 25.446 27.593 25.3351C27.7594 25.0794 27.2665 25.7739 27.3236 25.6281C27.229 26.077 27.9279 25.3081 27.7097 25.9034C27.6733 25.94 27.9311 25.526 27.8904 25.6112C27.9506 25.6833 27.697 26.0488 27.8164 25.9509C27.6865 26.17 27.9194 25.9137 28.0003 25.8767C28.1339 25.7423 27.9453 25.9982 27.8909 25.9866C28.0689 25.8519 28.5275 25.6784 28.4572 26.1029C28.5586 25.9567 28.8967 25.639 28.9046 25.6752L28.6653 26.0043C28.5575 26.2232 28.7942 26.0516 28.6135 26.3438C28.9537 26.0018 28.1228 26.5054 28.4223 26.2485C28.2638 26.5406 28.9041 25.8085 28.5776 26.2472C28.6521 26.2829 28.958 25.9533 28.8153 26.3179C28.8317 26.2572 28.4566 26.7448 28.5332 26.7563C28.6663 26.7552 28.6669 26.6219 28.8164 26.5601L28.9579 26.462C29.1751 26.1332 29.0161 26.5584 29.2152 26.1813C29.0467 26.4613 29.4535 26.1187 29.0863 26.6426L28.7841 27.0569C28.7841 27.0569 29.1407 26.6542 29.2987 26.4955C29.2622 26.5321 29.2316 26.6293 29.1809 26.7024C29.6251 26.0567 29.2368 26.823 29.622 26.3474C29.5522 26.6387 29.8169 26.5274 29.5913 26.9532C29.7815 26.8063 29.9981 26.6107 29.9811 26.8046C29.9325 26.8534 29.8882 26.8538 29.7989 26.9878C29.7133 27.2065 29.8491 27.0479 29.9542 26.9865C29.8691 27.072 29.7931 27.436 29.6811 27.7034C29.8712 27.5564 30.0905 27.2033 30.2426 26.984C29.8728 27.6654 30.6996 26.7016 30.3784 27.3341C30.3055 27.4074 30.0688 27.579 30.0075 27.7733C29.6277 28.4426 30.4507 27.3941 30.3303 27.7584L30.6652 27.2227C30.4903 27.5754 31.0149 27.0259 30.6256 27.55C30.7835 27.3912 30.6145 27.8045 30.9594 27.2807C30.812 27.827 31.512 27.3003 30.9716 28.2859C31.0445 28.2126 31.0318 28.358 31.2225 28.0779C31.3831 27.7616 31.0302 28.249 31.148 28.0422C31.1702 28.042 31.2816 27.9078 31.3424 27.8467C31.3075 27.9924 31.3234 28.0649 30.9789 28.4554C30.8564 28.844 31.69 27.6742 31.6847 27.9892C31.5225 28.1964 31.4818 28.2816 31.5484 28.281L31.8643 27.9634C31.906 28.1205 31.5859 28.4866 31.3323 28.8521C31.4232 28.8271 31.4734 28.8872 31.672 28.6433L31.4078 29.13C31.6049 28.7771 31.5901 28.9468 31.6751 28.8613L31.6022 28.9345C31.5008 29.0807 31.616 29.0313 31.6725 29.0187C31.8246 28.7994 31.8252 28.6662 31.8437 28.5813C31.9773 28.4469 31.9831 28.5074 32.1411 28.3486C31.8896 28.6899 32.037 28.6523 32.0529 28.7248C32.0322 28.834 32.3202 28.4561 32.3302 28.4682C32.1923 28.651 32.3783 28.5525 32.1596 28.7724C32.111 28.8212 32.2552 28.5657 32.1094 28.7123C32.0402 28.8703 31.813 29.1871 32.0296 28.9915C32.1976 28.8447 32.5103 28.3092 32.4306 28.5884C32.3577 28.6617 32.2362 28.7838 32.1268 28.8938L32.0734 29.1243L32.3006 28.8075C32.2599 28.8926 32.2356 28.9171 32.1992 28.9537C32.4585 28.6487 32.3888 28.94 32.6746 28.5864C32.7412 28.5858 32.5948 28.8656 32.6107 28.9381L32.5864 28.9626C32.5008 29.1813 32.6402 29.1074 32.8325 28.9362L32.7718 28.9973C32.7718 28.9973 32.8785 29.0449 33.0364 28.8861C32.9223 29.1777 32.1886 30.0923 32.5509 29.7501C32.6254 29.7858 33.0713 29.2491 33.1891 29.0422C33.1516 29.3453 33.6413 28.9415 33.393 29.5007C33.5023 29.3908 33.5552 29.2935 33.636 29.2564C33.7136 29.5101 34.2535 29.1664 33.9239 29.8959C33.7823 29.994 33.6867 30.2007 33.5488 30.3835C33.7918 30.1393 33.376 30.712 33.749 30.2486C33.9619 29.9683 34.0633 29.8221 34.0982 29.6764C34.3042 29.602 34.459 29.7339 34.3105 30.038C34.3797 29.8799 34.4627 29.8187 34.5456 29.7574C34.1969 30.1964 34.2186 30.3294 34.3945 30.2189L34.6053 29.9628L34.4347 30.267C34.5076 30.1937 34.8927 29.7182 34.7442 30.0222C34.6692 30.1197 34.5921 30.2415 34.5414 30.3146C34.7558 30.1432 35.1261 29.8373 35.0242 30.1167L34.7643 30.5549C34.7643 30.5549 35.0495 30.3345 35.0965 30.1767C35.0125 30.5044 35.0606 30.5887 34.8292 30.954C35.6528 30.2809 35.9243 30.4724 36.0806 30.7133L35.8984 30.8965C35.8207 31.1515 36.2143 30.579 36.143 30.7612C35.9729 30.9322 35.8487 31.2119 35.6321 31.4075C35.5402 31.6989 35.9982 31.15 36.1234 31.1126C36.3342 30.8565 35.9454 31.2474 36.2291 30.918C36.3141 30.8325 36.1694 31.2212 36.5017 30.843C36.3981 31.0134 36.1408 31.2942 36.0172 31.4405L36.2074 31.2936C35.8968 31.8049 35.4139 32.0028 35.0262 32.6358L35.1171 32.6108C34.8228 33.0614 34.6416 32.9782 34.6205 33.2206C34.8228 33.0614 35.313 32.5244 35.4087 32.3177C35.5883 32.292 36.1968 31.4148 36.285 31.5473C36.1287 31.815 36.154 31.5242 35.9126 31.8774C35.7034 32.2425 36.153 31.7906 36.106 31.9485C36.1672 31.7542 36.5418 31.3998 36.6348 31.3505C36.537 31.5815 36.2945 31.6925 36.3405 31.8011C36.5471 31.5935 36.7451 31.4828 36.8085 31.2643C37.2502 30.7761 36.7673 31.4826 37.1318 31.1162C36.8661 31.4939 36.3785 31.8735 36.3109 32.1405C36.5867 31.7748 36.7985 31.7609 37.1799 31.2006C37.135 31.3342 36.9121 31.6025 36.7177 31.7979C36.5956 32.0533 37.3511 31.2718 36.8017 31.9789L37.0975 31.6373C37.0204 31.7591 36.9554 31.8686 36.8376 32.0755C36.8777 32.1236 37.3674 31.7198 36.9216 32.2564C36.9702 32.2076 37.0483 32.328 37.3162 31.9261C37.4403 31.6465 37.0209 32.1345 37.4002 31.5984C37.1059 32.049 37.5312 31.6215 37.6727 31.5234L37.5106 31.7307C37.5935 31.6694 37.6072 31.7662 37.8038 31.5465C37.6944 31.6565 37.5829 31.7906 37.5544 31.8635L37.8339 31.5826C38.0298 31.4962 37.3859 32.1435 37.5533 32.13L37.2924 32.326C37.2924 32.326 37.1239 32.606 37.2512 32.5443C37.5063 32.2878 37.8122 31.9582 38.0087 31.7386C38.1603 31.6525 37.7572 32.0798 38.0446 31.8352L37.7086 32.1287C37.6236 32.2142 37.3536 32.6404 37.416 32.6883C37.5433 32.6266 37.94 32.2721 38.0034 32.0535C38.0335 32.0896 37.9379 32.2963 37.7335 32.4797C37.8808 32.4421 37.9828 32.1627 38.183 32.0278C38.0531 32.2469 37.8903 32.5874 37.7076 32.9038L37.2501 33.3195L37.2902 33.3676C36.9178 33.6977 37.0631 33.6844 36.7086 34.0628C36.678 34.16 36.8317 34.0497 36.9389 33.964C37.3895 33.2456 37.763 33.1577 38.2253 32.5603C38.4735 32.5098 37.0979 34.0474 37.9764 33.2528C38.08 33.0823 38.5131 32.6911 38.305 32.7897C38.3267 32.9228 38.8518 32.2401 38.7234 32.5682C38.4524 32.7522 38.2891 33.2259 37.9109 33.4955C38.0932 33.3123 37.9944 33.301 37.9236 33.3501C37.7572 33.6058 37.4291 33.9356 37.4893 34.0078C37.5802 33.9828 37.6425 34.0307 37.9019 33.7257C38.1856 33.3963 37.8053 33.6902 38.119 33.3969C38.3108 33.3589 37.8771 33.8834 38.4238 33.3337C38.3351 33.3345 38.6109 32.9688 38.8074 32.7492L38.9912 32.6749L38.7846 32.8826C38.7514 33.1372 39.1613 32.5039 39.203 32.661L38.8723 33.1483C38.52 33.5025 38.8776 32.8333 38.3668 33.4796C38.4149 33.5639 38.6943 33.283 38.6209 33.4895C38.5723 33.5384 38.54 33.5265 38.4693 33.5756C38.4772 33.6119 37.7941 34.4533 38.2939 34.0615C38.4941 33.9266 38.5004 33.8539 38.6869 33.6222C38.8501 33.6571 39.0789 33.4493 39.1655 33.4728C38.7725 33.9121 39.2516 33.6295 38.774 34.0211C38.9669 33.7167 38.81 33.609 38.399 34.0001C37.9832 34.5728 38.3794 33.8428 37.9014 34.3676C37.9716 34.4518 37.5157 34.9764 37.24 35.3421C37.2357 35.3906 37.3794 35.2683 37.4502 35.2192C37.7318 34.9141 37.7017 34.878 37.9853 34.5486C38.0028 34.7301 38.2331 34.6313 38.5548 34.3742C38.4491 34.5689 38.1676 34.874 38.101 34.8746C38.2885 34.8851 38.3525 35.042 38.3799 35.2356C38.7635 34.651 38.5917 35.2217 38.9325 34.7465C38.9816 34.5644 39.2616 34.1502 39.4903 33.9424C39.4962 34.0029 39.2938 34.1621 39.2045 34.296C39.4919 34.0514 38.8818 34.8196 39.3049 34.4163C39.0545 34.4911 38.7296 35.0388 38.363 35.4295C38.6319 35.2698 38.1057 35.7102 38.176 35.7944C38.4449 35.6347 38.6852 35.5479 38.8305 35.5345C38.5885 36.021 39.0513 35.7991 39.1559 35.8709C39.0117 36.1265 38.5864 36.554 38.5537 36.6753C38.616 36.7233 38.9551 36.1391 38.841 36.4307L38.756 36.5162C38.8733 36.4425 38.6271 36.9775 39.2367 36.3426L38.775 36.8067C38.775 36.8067 38.8558 36.7697 38.9266 36.7206C38.7808 36.8672 38.6651 37.0499 38.5478 37.1235C38.2921 37.5132 38.7089 37.1827 38.7713 37.2306L38.9884 36.9018C39.2874 36.7781 39.0903 37.131 39.28 37.1173L39.0127 37.386L39.233 37.2752C38.9657 37.5439 38.8579 37.7628 39.0967 37.567L38.328 38.1185C38.4458 37.9116 38.6762 37.8128 38.9234 37.52C39.1241 37.2519 38.981 37.241 38.7137 37.5097C38.7195 37.5702 38.7802 37.5091 38.8975 37.4354C38.551 37.8502 38.5129 37.7778 38.2477 38.0223C38.2699 38.0221 38.1907 38.1681 38.3122 38.046C38.1099 38.2051 38.0433 38.2057 37.981 38.1578C38.1569 38.0473 38.1817 37.8896 38.3011 37.7917C37.9831 38.1335 37.8336 38.1953 37.8484 38.0257C38.1648 37.5749 37.4929 38.1619 37.5098 37.968C37.86 37.638 38.1574 37.4054 38.3212 37.3071C38.4411 37.076 38.2589 37.2592 38.3788 37.0281C38.1236 37.2845 37.747 37.6632 37.5288 37.7498L37.7517 37.4815C37.5679 37.5557 37.2235 37.9462 37.2261 37.7887C37.215 37.5345 37.0825 37.4024 37.0164 37.2697L37.2394 37.0014C36.6847 37.5147 36.8823 37.0286 36.5891 37.2128C36.6895 36.8244 36.1031 37.1927 36.4259 36.6691C36.0286 36.6483 35.6737 36.6513 35.5237 36.3377L35.8882 35.9712C35.6209 36.2399 36.0646 35.7275 35.9737 35.7525C35.7545 36.1056 35.577 36.1071 35.3483 36.3149C35.5052 35.9139 35.0889 36.1112 34.7614 36.3078L34.9843 36.0394C34.4703 36.4677 34.7408 35.9083 34.6912 35.7149C34.7683 35.5932 34.959 35.313 34.8924 35.3135C34.4714 35.6926 34.4656 35.6321 34.1502 35.8164C34.09 35.7442 34.0626 35.5507 34.1281 35.3079C33.3742 35.6897 33.4292 35.0595 32.874 35.1974L33.1033 34.8564C32.2988 35.3113 32.4779 34.4014 31.975 34.5752L32.433 34.0263C32.4985 33.7836 32.1546 34.0408 31.8646 34.4429C31.9179 34.2124 31.4768 34.5673 31.7875 34.056C31.8023 33.8864 31.4943 34.2402 31.3812 34.2654C31.4108 33.926 31.3099 33.939 31.0902 33.9166L31.096 33.9771C31.2053 33.8672 31.3818 33.6235 31.376 33.563C31.2001 33.6734 31.3026 33.2608 30.8419 33.9671C30.9872 33.4451 30.2629 33.9963 30.5076 33.3523C30.3797 33.5472 30.3131 33.5477 30.2038 33.6577C30.0691 33.5498 30.2223 33.0641 29.8805 33.2971C29.9233 33.1877 30.1499 33.0041 30.0998 32.944C30.0189 32.981 29.9233 33.1877 29.796 33.2493C29.3375 33.4228 29.6354 32.5482 29.3756 32.4778C28.7802 32.5676 28.5441 32.0972 28.1839 31.9065L28.2853 31.7603C27.8035 32.2004 28.4052 31.0205 27.765 31.7526C27.8342 31.5946 27.7111 31.6077 27.9097 31.3638C27.5616 31.6696 27.9018 30.8189 27.4465 31.2103C27.4565 31.2223 27.4686 31.2101 27.5294 31.149C27.6097 30.7366 27.2029 31.0791 27.2589 30.6911C27.3075 30.6423 27.3762 30.6175 27.4655 30.4835C27.5918 30.1796 26.9452 30.9844 27.3614 30.2785C27.3414 30.2544 27.1121 30.5955 27.1343 30.5953C27.0112 30.0998 26.3831 30.311 25.9679 30.2418C26.0065 29.6723 26.7128 29.0728 26.203 29.4526C26.2823 29.3066 26.0144 29.7085 26.1058 29.5503C25.9157 29.6972 26.5005 28.7113 26.2067 29.0287C25.9468 29.4669 26.0224 29.2361 25.856 29.4919C25.8998 29.116 26.1133 28.7025 25.7915 28.9595L25.9437 28.7402C25.4091 29.2776 25.4693 28.8411 24.8919 29.4879C24.0927 29.1192 23.1429 29.0788 22.378 28.6977C21.7531 28.1096 20.8741 28.0201 20.3713 27.1766C20.5435 26.4727 20.5213 26.4729 20.188 26.6089C20.2509 26.5236 20.2852 26.5112 20.318 26.3898C20.0316 26.8767 20.1547 26.3549 19.8806 26.8295C19.6698 26.577 19.3391 26.5555 19.0634 26.4125C19.1321 26.3877 19.3777 25.986 19.3111 25.9866L19.0861 26.2791L19.1432 26.1333C19.0724 26.1824 18.8859 26.414 18.8368 26.5961C17.8907 26.6405 17.747 25.2368 16.9695 25.0011C16.9182 24.6988 16.5791 24.7743 16.3351 24.7764C16.1412 23.8213 15.9004 23.0239 15.1069 23.2244C15.1069 23.2244 15.8201 21.9104 16.2021 21.7255L16.434 21.7356Z" fill="#C397C8"/>
<path d="M38.8711 38.7725C39.0361 38.57 39.093 38.4139 39.3639 38.1873C39.2011 38.3676 39.0432 38.6031 38.8711 38.7725Z" fill="#C397C8"/>
<path d="M39.2504 35.316C39.2504 35.316 39.3008 35.225 39.326 35.1795C39.3563 35.1903 39.5178 35.0299 39.4443 35.1438C39.414 35.133 39.3405 35.2469 39.2598 35.3271L39.2504 35.316Z" fill="#C397C8"/>
<path d="M38.9774 34.8311C39.1507 34.6578 39.3462 34.587 39.4073 34.6092L38.9774 34.8311Z" fill="#C397C8"/>
<path d="M39.2656 33.751C39.3663 33.5705 39.4468 33.4909 39.4841 33.535C39.3921 33.6259 39.3461 33.6714 39.2656 33.751Z" fill="#C397C8"/>
<path d="M38.873 34.1299C38.873 34.1299 38.918 33.9799 38.9915 33.8642C38.8622 34.015 39.1318 33.8283 38.873 34.1299Z" fill="#C397C8"/>
<path d="M38.5384 32.8607C38.5384 32.8607 38.3378 32.978 38.4945 32.757C38.3958 32.9197 38.7722 32.6043 38.5384 32.8607Z" fill="#C397C8"/>
<path d="M37.9453 32.7871C37.9453 32.7871 37.9611 32.7303 37.917 32.7535C37.9579 32.651 38.0942 32.5359 38.1361 32.5353L37.9568 32.7756L37.9453 32.7871Z" fill="#C397C8"/>
<path d="M30.4464 27.6112L30.5574 27.541L30.4141 27.7246L30.4464 27.6112Z" fill="#C397C8"/>
<path d="M27.2361 25.2658C27.1106 25.3706 27.3297 25.0462 27.3433 25.0116C27.3951 25.0225 27.1632 25.255 27.2361 25.2658Z" fill="#C397C8"/>
<path d="M24.8938 25.0737L24.9147 25.0735L24.6465 25.4854L24.8938 25.0737Z" fill="#C397C8"/>
<path d="M50.4259 7.31174C50.327 7.2187 50.0427 7.42 50.2492 7.25443C50.4319 7.24138 50.5699 7.2521 50.4259 7.31174Z" fill="#C397C8"/>
<path d="M52.4946 36.723C51.2812 36.635 52.4229 35.8981 51.6341 35.6878C51.5826 35.6523 52.2768 35.5641 52.1084 35.4934C51.153 35.3201 51.6502 34.5992 52.3117 33.997L52.4981 33.9838C52.6174 33.8634 52.0046 33.8913 52.0901 33.7831C52.2131 33.7464 52.2646 33.7819 52.4332 33.7211C52.0683 33.7832 52.259 33.5906 51.9734 33.6163C52.1104 33.5437 52.398 33.494 52.5568 33.4213L52.1403 33.4478C51.1428 33.514 52.1827 33.0767 51.6456 32.9845C51.7447 32.9719 51.82 32.9834 51.9114 32.9349C51.2852 32.7356 51.3654 32.3044 51.1201 31.983C51.2629 31.9702 51.5386 31.9325 51.7073 31.8717C51.265 31.9462 51.1422 31.8513 51.0611 31.7801C51.4976 31.6457 50.6429 31.699 50.8633 31.5421L50.9624 31.5295C50.4925 31.5444 51.2285 31.3484 50.6573 31.3999L51.0066 31.2661C50.3779 31.3538 51.3282 31.0726 51.001 31.0747L50.8681 31.0995C50.7076 31.0646 51.0211 30.9669 50.9161 30.9198L50.9836 30.8954C50.8073 30.7889 51.1586 30.6311 50.6587 30.742C51.0516 30.6079 50.8469 30.8365 51.4183 30.6534C50.8718 30.2861 50.9362 29.7833 50.8896 29.3051C51.0821 29.2202 51.1417 29.16 51.3302 29.1229C51.2232 29.0997 51.2234 28.9681 50.9617 28.9697C50.9716 28.9816 51.2077 28.8964 51.2435 28.8603C51.4281 28.7395 50.6863 28.8758 50.9046 28.7428C51.0454 28.7539 51.2001 28.729 51.3886 28.6919C50.996 28.6944 51.0497 28.5745 50.9151 28.4916C51.0023 28.491 51.0558 28.5026 51.2006 28.4658C50.7545 28.4567 51.2724 28.262 50.993 28.216L51.2785 28.1902C51.6121 27.9848 50.6835 28.2658 50.8722 28.0971C50.9694 28.1085 51.0805 28.0838 51.1916 28.0592C50.6701 28.0386 50.8193 27.8223 50.6311 27.7279C50.6747 27.7276 50.7521 27.7151 50.7521 27.7151C50.675 27.596 50.83 27.4395 50.5883 27.3334C50.7153 27.2489 51.2845 27.2213 51.1638 27.1025C50.5984 27.2137 50.9183 26.9126 50.2695 27.1081C50.357 26.976 50.5617 26.7474 50.3575 26.7129C50.5855 26.7234 51.0598 26.529 51.1072 26.6124L51.4466 26.4667C51.6787 26.4294 51.3632 26.551 51.6746 26.4772C51.6449 26.4415 51.4033 26.3354 51.5065 26.275C51.1496 26.2413 50.4912 26.2934 50.4043 26.1623C50.6302 26.1968 51.0391 26.0028 51.1342 26.0381L50.0218 26.0451C50.0218 26.0451 50.476 25.9585 50.3274 25.9116C50.1727 25.9365 50.0756 25.9252 49.9546 25.9379C50.0221 25.9136 49.8062 25.7594 50.3617 25.6363C50.574 25.5751 50.4885 25.6833 50.681 25.5984C50.6673 25.5028 50.4789 25.5399 50.4652 25.4443L50.5425 25.4318C50.6141 25.3596 50.2811 25.3019 49.9874 25.4234C49.9734 25.4593 50.3206 25.3495 50.1718 25.4342C49.8425 25.4602 49.7416 25.3651 49.7279 25.2695C49.8251 25.2809 49.9699 25.2441 50.1345 25.2311C49.6805 25.1861 49.5359 25.0913 49.3379 24.9849C49.0721 25.0345 49.8317 24.9459 49.6968 24.9946C50.0661 24.753 49.152 24.7349 49.674 24.4924C49.7275 24.504 49.2971 24.5665 49.3744 24.5541C49.4044 24.4582 49.7912 24.3959 49.6405 24.373C49.8627 24.3237 49.5693 24.3136 49.496 24.2782C49.3215 24.2793 49.607 24.2536 49.6367 24.2893C49.4445 24.2426 49.0623 23.9939 49.388 23.7526C49.2333 23.7775 48.8229 23.7322 48.8368 23.6963L49.1899 23.6462C49.3923 23.5731 49.1465 23.5149 49.4461 23.4532C49.0119 23.432 49.8262 23.7259 49.4932 23.6682C49.7948 23.5825 48.9203 23.612 49.3943 23.5492C49.3786 23.4775 48.9662 23.4562 49.2937 23.3226C49.2361 23.3588 49.7854 23.3075 49.7578 23.2478C49.6787 23.1526 49.5833 23.2489 49.4705 23.1659L49.3317 23.1309C48.9886 23.1929 49.3736 23.023 48.9947 23.1211C49.2724 23.0595 48.8105 22.9787 49.3739 22.8914L49.8261 22.8288C49.8261 22.8288 49.3462 22.8318 49.14 22.8211C49.1738 22.809 49.275 22.7724 49.3404 22.772C48.6442 22.8841 49.3843 22.6402 48.8588 22.6674C49.0891 22.5224 48.8712 22.3922 49.2958 22.2699C49.0817 22.2234 48.834 22.1891 48.975 22.0686C49.0404 22.0682 49.0602 22.092 49.203 22.0791C49.4074 21.9821 49.221 21.9953 49.1041 21.9601C49.2132 21.9595 49.501 21.7782 49.7392 21.669C49.5251 21.6226 49.1581 21.7086 48.9261 21.746C49.6066 21.5622 48.4703 21.5934 49.0874 21.3861C49.1845 21.3974 49.4303 21.4557 49.5911 21.359C50.2617 21.1633 49.0737 21.2905 49.3933 21.121L48.8379 21.2441C49.1851 21.1343 48.499 21.1267 49.0841 21.0392C48.878 21.0286 49.263 20.8587 48.7194 20.9698C49.1681 20.6918 48.4189 20.5291 49.3911 20.2478C49.294 20.2365 49.3893 20.1402 49.0997 20.2138C48.7862 20.3115 49.3257 20.2483 49.1154 20.2855C49.0956 20.2617 48.9409 20.2866 48.8755 20.287C49.0026 20.2025 49.0404 20.1424 49.4984 20.1395C49.8418 19.9459 48.5605 20.1455 48.7632 19.9408C48.9833 19.9155 49.0726 19.891 49.033 19.8434L48.6326 19.8101C48.7201 19.6779 49.1464 19.6633 49.5332 19.601C49.4718 19.5536 49.4779 19.4817 49.1825 19.4956L49.6646 19.337C49.3174 19.4469 49.4366 19.3265 49.3395 19.3152L49.4366 19.3265C49.6032 19.2896 49.4982 19.2424 49.4468 19.2068C49.2028 19.2562 49.1193 19.3405 49.0498 19.3888C48.8753 19.3899 48.9131 19.3298 48.7069 19.3192C49.0818 19.269 48.9689 19.1859 49.0067 19.1259C49.0783 19.0537 48.6697 19.1161 48.6816 19.104C48.8799 19.0789 48.7115 19.0082 48.9951 19.0064C49.0605 19.0059 48.8145 19.0793 48.9771 19.0902C49.1239 19.0295 49.4552 18.9795 49.2074 18.9452C49.0131 18.9225 48.4655 19.0815 48.6958 18.9365C48.7929 18.9478 48.9357 18.935 49.0785 18.9221L49.2751 18.7893L48.9221 18.8394C48.9221 18.8394 49.0331 18.8147 49.0887 18.8024C48.7159 18.8287 48.97 18.6596 48.5634 18.6981C48.5239 18.6505 48.7937 18.5531 48.8315 18.493L48.8513 18.5168C49.0677 18.4078 48.931 18.3489 48.703 18.3384L48.7803 18.3259C48.7803 18.3259 48.7568 18.2184 48.5506 18.2078C48.8006 18.0866 49.8458 17.9723 49.4116 17.9511C49.3959 17.8794 48.7712 17.9193 48.559 17.9804C48.7814 17.7996 48.2224 17.7075 48.7424 17.4888C48.6115 17.4897 48.5222 17.5142 48.4271 17.4789C48.5565 17.2388 48.0036 17.0749 48.6704 16.7955C48.819 16.8424 49.0235 16.7455 49.2119 16.7084C48.8967 16.6984 49.5373 16.5987 48.9979 16.6619C48.6884 16.7117 48.5337 16.7366 48.4186 16.8091C48.2423 16.7026 48.2367 16.5112 48.5305 16.3897C48.3836 16.4505 48.2865 16.4391 48.2012 16.4158C48.6971 16.3528 48.7608 16.2447 48.5903 16.198L48.2928 16.2358L48.6063 16.1381C48.5092 16.1267 47.9796 16.2019 48.2614 16.0924C48.3725 16.0678 48.4935 16.0551 48.5827 16.0306C48.3349 15.9963 47.9028 15.9511 48.1648 15.8179L48.6013 15.6836C48.6013 15.6836 48.2782 15.6378 48.163 15.7103C48.4291 15.5292 48.4491 15.4214 48.8379 15.3352C47.8983 15.2335 47.8514 14.8869 47.9095 14.5875L48.1297 14.5622C48.346 14.4532 47.7251 14.5767 47.8839 14.5039C48.102 14.5025 48.3521 14.3813 48.6118 14.4036C48.8421 14.2586 48.2154 14.3224 48.1104 14.2752C47.8129 14.313 48.3047 14.2979 47.9298 14.3481C47.8208 14.3488 48.1523 14.1673 47.712 14.2179C47.8905 14.169 48.2197 14.143 48.4061 14.1298L48.1802 14.0954C48.706 13.9365 49.1239 14.1492 49.7707 13.9776L49.7113 13.9062C50.1676 13.7957 50.2366 14.0105 50.3936 13.8301C50.1676 13.7957 49.5211 13.8357 49.3187 13.9087C49.198 13.7899 48.2438 13.9873 48.2778 13.8435C48.5457 13.7701 48.345 13.9508 48.712 13.8647C49.0712 13.7428 48.5041 13.7464 48.6411 13.6738C48.4704 13.7586 48.0222 13.7734 47.9271 13.7381C48.1434 13.6291 48.3534 13.7235 48.3953 13.6155C48.1315 13.6411 47.9314 13.5587 47.7587 13.6674C47.1657 13.719 47.9116 13.5349 47.4536 13.5378C47.8642 13.4514 48.4153 13.5078 48.6238 13.3629C48.2251 13.4372 48.0846 13.2945 47.4835 13.4419C47.5987 13.3694 47.918 13.3315 48.1579 13.33C48.406 13.2327 47.4224 13.2629 48.2178 13.1382L47.8112 13.1767C47.9462 13.128 48.0355 13.1035 48.2597 13.0303C48.2637 12.9824 47.7027 12.9142 48.3195 12.8385C48.2541 12.8389 48.2881 12.6952 47.8536 12.8056C47.5937 12.9149 48.1648 12.8634 47.5876 12.9867C48.0558 12.8641 47.5204 12.8795 47.3697 12.8565L47.6018 12.8192C47.5047 12.8078 47.5544 12.7357 47.3025 12.7493C47.4334 12.7485 47.6 12.7115 47.6675 12.6872L47.3066 12.7014C47.1184 12.6069 47.9374 12.5898 47.8364 12.4947L48.1159 12.5408C48.1159 12.5408 48.3858 12.4434 48.2689 12.4082C47.9397 12.4342 47.5351 12.4488 47.2833 12.4623C47.1347 12.4154 47.6602 12.3882 47.3132 12.3665L47.7137 12.3998C47.8227 12.3991 48.2592 12.2648 48.2435 12.1931C48.1266 12.1579 47.6488 12.137 47.476 12.2458C47.4682 12.21 47.6726 12.113 47.9125 12.1115C47.7997 12.0284 47.5476 12.1736 47.3454 12.1151C47.5577 12.0539 47.8753 11.9083 48.2007 11.7986L48.7559 11.8071L48.7599 11.7592C49.2061 11.7683 49.1051 11.6733 49.5652 11.6464C49.6347 11.5981 49.4841 11.5752 49.3552 11.5521C48.6073 11.7602 48.3301 11.5586 47.6437 11.6825C47.4477 11.5522 49.306 11.361 48.2393 11.3438C48.0607 11.3928 47.5373 11.3961 47.7394 11.4547C47.8031 11.3466 47.0513 11.471 47.3252 11.3257C47.6047 11.3718 48.0156 11.1539 48.4359 11.211C48.2058 11.2244 48.2652 11.2958 48.3286 11.3194C48.5964 11.2459 49.0227 11.2312 49.0091 11.1356C48.9477 11.0882 48.9221 11.0046 48.569 11.0547C48.1724 11.105 48.6165 11.1381 48.2119 11.1526C48.0793 11.0458 48.6644 10.9584 47.9743 10.9986C48.0336 11.07 47.625 11.1324 47.3592 11.182L47.1908 11.1113L47.4546 11.0857C47.6334 10.9051 46.9846 11.1006 47.0404 10.9567L47.5523 10.8339C47.9905 10.8072 47.3595 11.0504 48.0775 10.9382C48.1075 10.8423 47.7346 10.8686 47.9193 10.7478C47.9728 10.7594 47.9926 10.7832 48.0679 10.7947C48.0917 10.7706 49.0439 10.5971 48.4808 10.5529C48.2548 10.5184 48.229 10.5664 47.9533 10.604C47.8663 10.473 47.5947 10.4628 47.5473 10.3794C48.0748 10.3282 47.5952 10.1996 48.1364 10.244C47.8349 10.3297 47.8503 10.5329 48.3639 10.5177C48.9848 10.3942 48.2764 10.6498 48.913 10.598C48.9232 10.4783 49.54 10.4026 49.9387 10.3283C49.9744 10.2922 49.7901 10.2814 49.7365 10.2698C49.3518 10.3081 49.3596 10.3439 48.9729 10.4062C49.0723 10.262 48.8623 10.1677 48.4935 10.1461C48.684 10.0851 49.0589 10.0348 49.0984 10.0824C48.9798 9.93965 49.0376 9.77183 49.149 9.61562C48.524 9.78705 49.0085 9.47297 48.4847 9.60787C48.3457 9.70445 47.8993 9.8269 47.6277 9.81666C47.6754 9.76851 47.9034 9.77902 48.0264 9.74236C47.6795 9.72064 48.5641 9.57148 48.0287 9.58684C48.2367 9.70514 48.7863 9.52223 49.2583 9.48335C48.9808 9.41334 49.5994 9.4453 49.5977 9.33765C49.3202 9.26765 49.1102 9.17329 49.0093 9.07824C49.4618 8.88398 49.0179 8.71934 48.9964 8.5879C49.2444 8.49063 49.7918 8.46324 49.8851 8.39088C49.8813 8.30717 49.2959 8.52619 49.5382 8.36915L49.6472 8.36846C49.5184 8.34536 50.0185 8.10295 49.2293 8.15581L49.8202 8.12814C49.8202 8.12814 49.7469 8.09272 49.6716 8.08123C49.8699 8.05605 50.0485 8.00707 50.1654 8.04221C50.5682 7.92004 50.1023 7.88711 50.0767 7.80355L49.7195 7.90151C49.4461 7.78363 49.7954 7.64983 49.6628 7.54302L50.0039 7.50497L49.8018 7.44645C50.131 7.42043 50.3572 7.3233 50.0638 7.31321L50.9043 7.42749C50.7019 7.50054 50.4919 7.40618 50.1467 7.4921C49.8471 7.55381 49.9559 7.68469 50.2753 7.64678C50.3229 7.59864 50.2357 7.59919 50.1069 7.57609C50.5928 7.50124 50.5649 7.57318 50.8921 7.5711C50.8723 7.5473 51.0191 7.48656 50.8644 7.51147C51.1023 7.53388 51.1419 7.58148 51.1457 7.66518C50.9633 7.63046 50.8462 7.72689 50.7153 7.72773C51.1338 7.67722 51.2585 7.7482 51.1512 7.85653C50.6711 7.99115 51.4642 8.02201 51.3331 8.15442C50.8968 8.15719 50.5717 8.13532 50.3914 8.07666C50.175 8.18569 50.3952 8.16037 50.2006 8.26925C50.5278 8.26718 51.0097 8.2402 51.1999 8.31076L50.8806 8.34867C51.049 8.41937 51.5012 8.35669 51.4256 8.47679C51.2765 8.69304 51.282 8.88439 51.2361 9.04018L50.9267 9.08999C51.6028 9.0857 51.178 9.33959 51.4773 9.40946C51.1853 9.63858 51.7838 9.77831 51.2461 9.94919C51.4934 10.2467 51.7328 10.5083 51.627 10.8558L51.169 10.8588C51.506 10.8686 50.9011 10.9322 50.9724 10.9916C51.3315 10.8697 51.4502 11.0125 51.7338 11.0107C51.3784 11.2163 51.7806 11.3572 52.0997 11.4509L51.7903 11.5007C52.385 11.5568 51.8749 11.7873 51.7834 11.9673C51.6604 12.0039 51.3608 12.0656 51.3885 12.1253C51.898 12.1579 51.8622 12.194 52.1813 12.2877C52.183 12.3953 52.0598 12.5636 51.8632 12.6964C52.5923 12.9669 52.1413 13.4004 52.5928 13.7324L52.2258 13.8185C53.0323 14.0765 52.3193 14.6432 52.7331 14.9038L52.1064 14.9675C51.9099 15.1004 52.2746 15.1698 52.7288 15.0832C52.5322 15.216 53.0496 15.2845 52.5259 15.4194C52.4067 15.5398 52.8132 15.5013 52.9162 15.5724C52.6778 15.8132 52.7371 15.8846 52.8636 16.0632L52.9113 16.015C52.7706 16.004 52.4949 16.0416 52.4571 16.1017C52.6275 16.1484 52.3018 16.3897 53.0478 16.2056C52.6209 16.4834 53.4137 16.6458 52.8461 16.9126C53.0464 16.8635 53.086 16.9111 53.2387 16.9101C53.2562 17.0894 52.8531 17.3431 53.194 17.4367C53.0928 17.4732 52.845 17.4389 52.827 17.5227C52.9003 17.5581 53.1027 17.4851 53.2196 17.5202C53.6137 17.757 52.8475 18.1805 52.958 18.419C53.3815 18.823 53.206 19.3504 53.2883 19.7925L53.1336 19.8174C53.7066 19.8736 52.5617 20.2636 53.4461 20.246C53.2992 20.3068 53.3902 20.3899 53.0828 20.4158C53.4932 20.461 52.7112 20.8129 53.2484 20.9052C53.2603 20.8931 53.2286 20.8814 53.1632 20.8818C52.8375 21.1231 53.3113 21.1918 53.0074 21.433C52.942 21.4334 52.8905 21.3978 52.7358 21.4228C52.4421 21.5442 53.384 21.4904 52.662 21.6505C52.6698 21.6863 53.0249 21.6123 53.0051 21.5885C52.7484 22.0447 53.2315 22.3885 53.427 22.782C53.0138 23.1554 52.1972 23.017 52.7521 23.1571C52.6172 23.2058 53.0278 23.1194 52.883 23.1562C53.0851 23.2148 52.0734 23.4484 52.466 23.446C52.9103 23.3474 52.7277 23.4443 52.9935 23.3948C52.7115 23.6358 52.3107 23.734 52.6516 23.8275L52.4195 23.8649C53.1015 23.9204 52.752 24.1857 53.5253 24.1928C53.7197 25.1126 54.2058 25.9349 54.3587 26.831C54.2795 27.7645 54.6902 28.5753 54.3551 29.5702C53.7596 29.9089 53.7695 29.9208 54.0368 30.1105C53.9376 30.1231 53.9059 30.1113 53.8265 30.1477C54.3244 30.0608 53.8896 30.3028 54.3756 30.228C54.3015 30.5873 54.4734 30.8733 54.4985 31.22C54.4371 31.1725 54.0285 31.2349 54.0562 31.2946L54.3833 31.2925L54.2385 31.3293C54.2385 31.3293 54.5736 31.363 54.7224 31.2784C55.2344 32.0526 54.2924 33.1351 54.4949 33.9592C54.3001 34.1996 54.5177 34.4614 54.6541 34.6519C54.0418 35.4453 53.5664 36.166 54.0967 36.7248C54.0967 36.7248 52.7816 36.9365 52.4509 36.7233L52.4946 36.723Z" fill="#C397C8"/>
<path d="M50.4855 7.4157C50.2345 7.47605 50.1099 7.55897 49.7696 7.53787C49.9972 7.50113 50.2599 7.42898 50.4855 7.4157Z" fill="#C397C8"/>
<path d="M47.9898 9.62276C47.9898 9.62276 47.8902 9.65877 47.8452 9.68263C47.8257 9.65918 47.6109 9.66058 47.7535 9.6243C47.773 9.64774 47.8922 9.63518 47.9996 9.63449L47.9898 9.62276Z" fill="#C397C8"/>
<path d="M47.8671 10.1616C47.6356 10.1752 47.4563 10.0924 47.4285 10.0324L47.8671 10.1616Z" fill="#C397C8"/>
<path d="M46.9641 10.7256C46.7768 10.7856 46.6793 10.798 46.6736 10.7392C46.7925 10.7267 46.8569 10.7263 46.9641 10.7256Z" fill="#C397C8"/>
<path d="M47.486 10.7183C47.486 10.7183 47.3628 10.8001 47.234 10.8244C47.4261 10.7995 47.1135 10.7565 47.486 10.7183Z" fill="#C397C8"/>
<path d="M46.9168 11.837C46.9168 11.837 47.1186 11.8953 46.8749 11.9449C47.0532 11.8958 46.588 11.8633 46.9168 11.837Z" fill="#C397C8"/>
<path d="M47.2813 12.305C47.2813 12.305 47.2247 12.3407 47.289 12.3402C47.1896 12.3762 47.0182 12.3773 46.9987 12.3539L47.2813 12.305Z" fill="#C397C8"/>
<path d="M48.9629 21.1952L48.8601 21.149L49.0758 21.1242L48.9629 21.1952Z" fill="#C397C8"/>
<path d="M49.3992 25.0942C49.5462 25.1164 49.2016 25.1657 49.1686 25.1776C49.1397 25.1429 49.4377 25.1405 49.3992 25.0942Z" fill="#C397C8"/>
<path d="M50.7708 27.0842L50.7728 27.0607L51.228 26.9871L50.7708 27.0842Z" fill="#C397C8"/>
</svg>
