<svg width="196" height="181" viewBox="0 0 196 181" fill="none" xmlns="http://www.w3.org/2000/svg">
<path d="M140.222 1.40754C139.308 0.809424 140.239 2.20814 139.506 1.12899C139.815 1.03048 140.127 1.02435 140.222 1.40754Z" fill="#0B53AA"/>
<path d="M64.5233 140.088C67.788 137.922 72.8779 138.546 76.3002 136.33C76.7188 136.134 76.532 137.236 77.4368 136.716C80.591 134.333 86.3211 132.857 91.0135 131.48L90.9156 131.827C91.8267 131.59 92.2206 130.295 93.0937 129.933C93.2202 130.072 92.9785 130.296 93.333 130.384C93.2146 129.821 94.6493 129.354 94.7251 128.803C95.1651 128.779 95.4023 129.135 95.9646 129.062L96.0354 128.291C96.3275 126.386 99.0592 126.381 100.13 124.618C100.151 124.79 100.085 124.98 100.315 124.991C102.231 122.443 105.278 119.967 107.403 117.289C107.496 117.523 107.733 117.879 108.086 117.873C107.668 117.331 108.265 116.456 108.795 115.708C109.661 115.802 109.289 114.161 110.315 113.56L110.389 113.716C110.296 112.713 111.52 113.05 111.145 112.053L111.918 111.944C111.284 111.156 113.049 111.31 113.014 110.51L112.836 110.42C112.998 109.82 113.597 109.777 113.761 109.24L113.884 109.254C114.403 108.035 115.329 107.656 114.617 107.324C115.425 107.215 114.15 108.526 115.362 108.33C117.051 104.295 119.22 100.424 120.751 96.3758C121.236 96.0212 121.424 95.7508 121.741 95.7133C121.731 95.274 122.128 94.1362 121.888 93.6542C121.856 93.7804 122.378 93.4878 122.497 93.2815C122.992 92.597 121.892 92.2414 122.474 91.5081C122.589 91.8827 122.786 92.0515 123.12 91.998C122.713 91.1582 123.116 90.2401 123.096 89.3614C123.205 89.5163 123.228 89.7513 123.475 89.7466C122.993 88.6885 124.019 88.088 123.77 87.198L124.149 87.5832C124.985 86.3585 123.273 87.0506 123.813 85.9729C123.908 86.2693 124.082 86.2031 124.278 86.2779C123.652 85.0969 124.232 83.4376 124.031 82.3427C124.103 82.4041 124.209 82.4021 124.209 82.4021C124.271 81.255 124.632 80.0552 124.338 78.758C124.575 78.3139 125.453 78.972 125.355 77.7181C124.439 77.7357 124.99 75.6218 123.949 76.3324C124.137 75.2928 124.453 73.6543 124.085 72.9707C124.448 73.4346 125.2 72.4156 125.308 73.2769L125.839 72.5917C126.228 72.6784 125.749 73.2841 126.202 73.0556C126.139 72.6016 125.74 71.3379 125.837 70.9279C125.185 70.1556 124.06 69.5022 123.802 68.2043C124.22 68.7771 124.778 67.7461 124.981 68.1346C124.334 67.5819 123.634 67.046 122.954 66.5568C122.839 66.1508 123.654 66.3549 123.306 65.7808C123.061 65.8483 122.879 65.6007 122.647 65.4639C122.731 65.2896 122.028 63.7962 122.866 63.4348C123.16 63.1623 123.233 64.087 123.433 63.5495C123.204 62.769 122.922 62.8058 122.659 62.0574L122.781 62.008C122.751 61.4592 121.904 60.6435 121.62 61.3239C121.716 61.6831 122.09 61.0481 122.032 61.6143C121.393 61.4068 120.97 60.6144 120.654 59.9141C120.888 60.1137 121.115 59.9994 121.397 60.0254C120.323 59.2926 119.616 58.4114 118.769 57.5958C118.385 57.7601 119.686 57.6096 119.568 57.8473C119.321 56.2823 117.178 55.8055 117.008 54.4903C117.221 54.5803 116.63 54.937 116.698 54.8415C116.247 54.3636 116.732 53.9775 116.2 53.8308C116.405 53.5757 115.682 53.5425 115.237 53.347C114.868 53.4012 115.25 53.1427 115.607 53.3556C114.879 53.1027 112.411 52.2868 111.141 51.4479C111.075 51.6689 109.989 51.9409 109.705 51.8835L109.959 51.4235C109.739 51.051 108.846 51.2722 108.854 50.8482C108.455 51.1227 109.157 51.0151 109.862 51.0329C110.584 51.0033 111.273 51.0686 110.694 51.1582C110.559 50.6428 109.119 51.6594 109.509 51.0083C108.802 50.8963 108.109 51.4119 107.498 50.9213C107.677 51.0121 108.1 50.2348 107.501 50.2463C106.499 50.3754 107.207 50.4874 106.418 50.7066L105.966 50.9665C106.012 51.4365 105.157 51.0448 105.608 51.5227C105.37 51.1349 104.493 52.0778 104.263 51.266L104.125 50.6251C103.706 50.7901 103.757 51.5112 103.66 51.8584C103.606 51.8123 103.428 51.7529 103.39 51.6281C103.904 52.5286 102.535 52.0055 102.695 52.8501C101.853 53.0232 101.311 54.0068 100.57 53.9897C100.479 54.6507 100.634 55.2442 100.134 55.7404C100.095 55.5842 100.144 55.4106 99.9476 55.3045C99.4427 55.581 99.6943 55.7959 99.7387 56.2032C99.5949 56.0804 98.8194 56.8644 98.372 57.3439C98.5637 58.0309 99.2296 57.8611 99.5668 57.9645C99.008 58.195 99.1415 58.6477 99.3103 59.0996C99.5323 59.5663 99.7183 60.0022 99.2687 60.3876C99.0883 60.2027 98.6845 59.4884 98.4326 60.0426C97.4083 60.7372 99.3216 61.1714 99.0616 62.1496L99.8987 61.7568C99.4347 62.2837 100.753 62.9176 99.8571 63.0447C100.267 63.2409 99.953 64.173 100.738 63.7969C100.703 64.5982 101.249 65.3725 101.758 66.0534C102.266 66.7343 102.702 67.291 102.492 68.127C102.722 68.201 103.139 68.6796 103.341 68.299C103.364 67.7335 102.651 68.171 102.82 67.8538C102.964 67.9766 103.191 67.8624 103.295 67.7976C103.534 68.2482 103.823 68.5566 102.928 68.7151C103.5 69.85 104.861 68.4582 105.853 69.4908C105.594 69.7312 105.598 69.8882 106.025 70.0683C106.377 70.0615 106.729 70.0234 107.081 69.9852C107.868 70.5352 107.171 70.8939 106.883 71.3861C107.416 71.5642 108.056 71.8344 108.473 71.5753C108.568 71.8717 108.663 72.1681 108.775 72.4485C108.531 71.8096 109.353 72.2961 109.652 72.2747L109.336 72.3121C109.341 72.5632 109.996 72.6605 110.349 72.6851C110.412 72.3386 109.84 72.0042 109.571 71.774C109.938 71.657 110.313 71.8539 110.785 71.7035C110.461 72.165 111.487 72.365 111.878 72.5145C112.342 72.7567 112.594 72.2025 112.736 72.2625C112.654 72.531 113.535 72.5141 113.013 72.8066C112.82 72.8574 112.723 72.4355 112.374 72.5991C112.627 72.8768 112.444 73.3669 113.233 73.1791C113.829 73.0421 113.42 72.1081 114.296 72.6721C114.016 72.7403 113.897 72.9466 113.636 73.0929L114.493 73.5787L114.659 73.1046C114.75 73.2442 114.645 73.2776 114.7 73.355C115.112 72.9076 116.165 73.4681 116.505 72.9279C116.999 72.9498 117.433 73.4438 117.876 73.5452L117.771 73.5786C118.29 73.9296 119.064 73.852 119.586 73.5594L119.536 73.6703C119.837 73.7429 120.595 73.7441 121.012 73.4849C121.762 73.91 121.09 75.3671 122.029 74.8153C122.858 74.8465 123.367 73.9891 123.078 73.6493C124.515 74.0769 126.208 73.3381 127.512 74.1136C127.719 73.9212 127.593 73.7824 127.995 73.6648C130.115 73.8752 132.103 72.9266 133.739 73.5858C133.252 73.8777 133.821 74.0866 133.915 74.3516C134.255 73.8114 134.592 74.6839 134.539 73.9001C134.371 73.4795 134.349 73.2759 133.783 73.1926C134.813 72.749 136.195 72.2673 136.937 72.3786C136.566 72.3072 136.72 72.1002 136.838 71.8939C137.118 72.5635 137.905 72.3129 138.282 71.8034L138.096 71.3988L138.7 71.5756C138.818 71.3379 138.31 70.7197 139.068 70.7209C139.212 70.8437 139.338 70.9512 139.532 70.9945C139.8 70.3615 139.99 69.416 140.761 69.2129L141.68 69.2894C141.832 69.0196 141.872 68.4381 141.348 68.6679C142.482 68.1281 143.033 67.5525 143.774 67.601C143.853 66.4065 144.267 65.2213 144.823 64.0648C145.378 62.9083 145.986 61.7036 146.651 60.702L146.955 60.9002C147.58 60.4801 146.555 60.3742 146.989 60.0676C147.207 60.3774 147.919 59.9085 148.057 60.518C148.834 59.8281 147.992 59.2007 148.084 58.6025C147.691 58.3589 148.184 59.1499 147.666 58.8303C147.557 58.6754 148.524 57.8092 147.917 57.4441C148.284 57.3272 148.697 57.6489 148.913 57.8645L148.829 57.2383C149.895 56.8568 149.612 59.1696 150.874 58.8314L151.003 58.2953C151.931 58.042 151.215 59.8923 151.999 58.7157C151.914 58.058 151.138 57.2724 150.618 57.6591C150.909 56.4919 149.256 56.6493 149.705 55.4634C150.212 55.2496 149.481 56.4409 150.131 56.3813C150.88 55.9745 150.192 55.1401 150.569 54.6934C150.122 55.1728 149.579 54.524 149.57 54.1475C150.123 53.6345 150.094 54.7182 150.463 53.8635C150.105 53.6192 150.068 52.7566 149.571 53.3783C148.748 52.8604 150.134 52.5669 149.538 51.9348C150.257 51.7797 150.817 53.1503 151.379 52.2762C150.709 52.2891 150.784 50.9063 149.751 51.2244C150.008 50.8898 150.538 50.9424 150.846 51.2975C151.364 50.8167 149.983 49.7915 151.289 49.8292L150.682 49.5269C150.926 49.3967 151.151 49.1883 151.569 48.9605C151.734 48.4865 150.914 47.2935 151.905 47.4629C151.813 47.292 152.018 46.205 151.268 46.549C150.771 47.1707 151.674 47.3888 150.693 47.6588C151.513 47.282 150.724 46.6693 150.521 46.2494L150.926 46.2259C150.814 45.9769 150.961 45.4561 150.569 45.2753C150.785 45.4595 151.03 45.392 151.15 45.217L150.597 44.9294C150.417 43.9754 151.686 44.7829 151.559 43.8436C151.706 44.0919 151.853 44.3402 151.981 44.5732C151.907 44.4177 152.465 44.1244 152.296 43.6724C151.762 43.4629 151.138 43.1139 150.729 42.9491C150.505 42.4197 151.341 42.7333 150.8 42.21L151.415 42.8888C151.576 42.9956 152.322 42.4633 152.323 41.7569C152.154 41.3049 151.416 40.6128 151.097 41.2939C151.089 40.9487 151.448 40.4552 151.825 40.7462C151.648 39.949 151.263 40.8512 150.93 40.1669C151.276 39.8777 151.733 39.0056 152.231 38.4467L153.164 39.1508L153.135 38.6647C153.872 39.2942 153.674 38.3248 154.421 38.6557C154.519 38.3085 154.246 37.89 154.027 37.5802C152.888 38.6381 152.33 36.5611 151.245 36.9273C150.847 35.6635 153.813 35.8891 151.935 34.6537C151.676 34.8942 150.765 34.3623 151.205 35.1386C151.222 34.3221 150.033 34.7217 150.345 33.7268C150.888 34.3756 151.329 32.8131 152.126 33.771C151.738 33.7471 151.928 34.3713 152.055 34.5415C152.435 34.1575 153.165 34.5045 153.04 33.6279C152.869 33.1132 152.73 32.4095 152.188 32.5926C151.556 32.6989 152.364 33.3584 151.689 33.1202C151.349 32.1221 152.206 31.8074 151.02 31.5947C151.245 32.2183 150.634 32.4655 150.23 32.5203L149.792 31.8381L150.234 31.9081C150.26 30.6989 149.401 31.6886 149.269 30.561L149.977 29.9038C150.72 30.0151 150.033 31.5823 151.116 31.1848C150.994 30.4337 150.356 30.2889 150.498 29.5485C150.642 29.6713 150.717 29.8896 150.844 30.0284C150.82 29.762 152.27 29.1848 151.122 28.2964C150.601 27.8512 150.663 28.2425 150.259 28.3287C149.758 27.1925 149.224 26.9516 148.908 26.2199C149.77 26.1563 148.56 24.8766 149.649 25.4679C149.29 25.9928 149.891 27.6451 150.813 27.8786C151.662 27.2187 150.958 28.8333 151.999 28.8918C151.818 27.9063 152.749 27.7472 153.323 27.4379C153.282 27.1562 152.925 26.9433 152.781 26.8205C152.165 26.848 152.278 27.1912 151.683 27.3596C151.499 26.2486 150.826 25.304 150.076 24.8789C150.242 24.4362 150.858 24.3773 151.061 24.7972C150.504 23.5522 149.911 22.245 149.601 20.9953C149.009 22.0897 148.833 19.7543 148.269 20.5656C148.338 21.2707 147.897 22.0326 147.346 21.8391C147.231 21.4332 147.766 21.7055 147.884 21.4677C147.173 21.1675 148.372 20.4067 147.31 20.2387C148.178 21.1953 148.539 20.0267 149.366 19.9324C148.54 19.289 149.891 19.7653 149.467 18.9729C148.642 18.3295 147.813 17.4978 147.195 16.6934C147.2 15.312 145.461 14.0112 144.841 13.0813C144.843 12.4063 145.81 12.3093 145.55 11.7178C145.061 11.115 145.113 12.6366 144.736 11.545L144.947 11.541C144.573 11.3755 144.128 9.57893 142.904 10.0106L143.885 9.77194C143.828 9.56898 143.527 9.52767 143.349 9.43691C143.592 9.27527 143.672 8.91272 144.046 9.0782C144.148 8.15012 142.964 8.0002 142.423 7.44551L142.333 8.1379C141.083 7.43984 140.885 6.47044 139.863 5.65815L140.296 5.35159L139.479 5.05335C140.003 4.85492 139.723 4.15395 139.089 4.16612C139.903 4.33884 140.788 4.47883 141.586 4.69896C141.723 5.3085 140.668 4.65378 140.523 5.23736C140.393 5.74214 141.292 6.50973 141.835 6.35803C141.562 6.00223 141.457 6.03564 141.049 5.90221C141.512 5.34393 141.982 5.86859 142.616 5.82503C142.418 5.65616 142.356 5.26494 142.13 5.37917C142.75 5.50854 143.127 5.83091 143.704 6.4163C143.082 6.1928 143.538 6.8904 143.221 6.86511C143.777 6.54048 144.509 6.95024 145.022 7.81941C144.833 8.79625 146.582 8.9981 147.134 10.0235C146.269 9.993 145.455 9.82029 144.811 9.42453C144.969 10.1436 145.319 10.0427 145.476 10.7617C146.111 10.7809 146.917 10.577 147.759 11.1731L147.36 11.4476C148.042 12.0309 148.669 11.6736 149.149 12.6376C149.555 13.4774 150.014 14.2691 150.454 15.0455C150.842 15.8386 151.193 16.5696 151.507 17.1757L151.072 17.4195C152.435 17.6916 152.635 19.5557 153.447 20.372C153.555 21.2646 154.05 22.1185 154.472 22.8795C154.807 23.6579 155.07 24.3749 154.782 24.8984C155.466 26.3137 156.078 27.6676 156.48 29.0883C156.935 30.4922 157.319 31.929 157.409 33.544L156.606 33.1042C157.199 33.6108 156.227 33.5196 156.415 34.0497C156.911 33.3652 157.276 34.7238 157.778 35.0909C157.423 36.5418 158.045 38.335 158.655 39.5947L158.145 39.6516C159.178 40.9346 158.191 42.4918 157.997 44.0496C157.772 44.2265 157.319 44.4864 157.33 44.9571C158.038 45.8696 157.925 46.327 158.254 47.6549C158.194 48.1269 158.067 48.7259 157.904 49.3255C157.688 49.9104 157.42 50.512 157.165 50.9407C157.256 51.8494 157.223 52.7447 157.12 53.6414C156.963 54.5235 156.701 55.4075 156.421 56.2762C155.95 58.059 155.142 59.7384 154.672 61.5839L154.003 61.6282C153.816 63.4997 152.729 65.31 151.675 67.0255C150.531 68.6956 149.209 70.2436 148.325 71.6733L147.743 70.8682C146.822 71.4667 146.304 72.7481 147.015 72.9856C146.023 73.554 145.284 75.1693 144.135 75.05C143.09 75.6038 143.263 76.2127 142.448 76.8405C140.108 77.7645 139.271 78.1886 137.034 79.0165L137.631 78.9108C137.818 78.6404 137.687 78.2819 137.125 78.3868C136.361 78.9038 133.998 78.8236 135.093 79.7287C132.552 79.5891 129.461 80.8258 127.273 79.9417C127.456 80.2521 126.893 80.2943 126.686 80.4866C124.747 80.4611 122.792 79.7452 121.179 80.1215C120.875 79.9546 121.715 79.656 120.937 79.5767C120.446 79.649 120.875 79.9546 120.297 80.0756C117.042 80.3422 113.939 78.7379 111.052 78.1184C105.712 77.3105 100.345 74.5725 96.6734 70.3892L96.9007 70.3063C95.9388 69.8539 95.4755 68.8425 95.1552 67.9225C94.8169 66.9872 94.5513 66.1447 93.6246 65.6916C93.7025 65.2349 93.1852 64.1774 93.7532 64.3549C92.6867 63.1667 93.4579 60.6247 92.7275 58.7081C92.6965 58.897 92.7518 59.0058 92.8445 59.2081C93.4177 57.2664 92.9699 55.3757 94.3183 53.4191C94.3059 53.6548 94.2446 54.0641 94.4589 54.1855C95.1681 53.5911 94.3556 51.9429 95.6794 52.0273C95.9521 51.614 95.3848 51.4679 95.215 51.7537C96.7374 49.6996 98.8624 47.7909 101.461 46.5637C104.059 45.3052 107.131 44.7909 109.939 45.0353C111.891 45.6256 111.744 46.1465 111.643 46.3681C111.543 46.6212 111.367 46.6246 112.884 46.6583C113.03 46.9066 113.194 46.3384 113.146 46.5434C114.364 46.6298 114.258 48.2016 115.205 47.995C115.242 47.2879 115.854 47.8726 116.077 47.5701C117.853 48.9644 117.727 49.6575 119.416 50.3L119.067 50.4637C121.406 51.0153 122.421 53.0207 124.341 53.7686C127.453 58.1511 128.81 62.8497 129.65 67.2915C130.472 71.7179 130.767 76.2172 130.428 80.7287C129.393 89.5702 127.28 98.2911 122.187 106.19C120.229 107.688 120.161 107.783 119.259 109.998C119.185 109.842 119.235 109.7 119.008 109.783C119.652 110.242 118.123 111.213 118.664 111.767C116.558 114.523 114.75 117.164 112.235 119.786C112.56 119.325 112.229 118.735 111.818 119.245L111.73 120.063L111.482 120.005C111.262 120.401 111.206 121.03 111.747 120.816C105.754 127.853 97.0181 132.024 88.8601 136.042C86.7249 136.711 84.0083 138.176 81.7731 139.098C74.6516 140.616 68.3021 141.193 61.2317 142.631C61.2317 142.631 61.9452 140.656 64.7124 139.88L64.5233 140.088Z" fill="#0B53AA"/>
<path d="M141.211 2.18646C141.115 2.59466 141.515 3.2432 140.688 3.18122C140.893 2.89593 140.916 2.36412 141.211 2.18646Z" fill="#0B53AA"/>
<path d="M148.931 19.1399C148.931 19.1399 148.903 19.4169 148.871 19.5097C148.728 19.3281 148.33 19.2591 148.446 19.0265C148.588 19.208 148.724 19.1132 148.931 19.1399Z" fill="#0B53AA"/>
<path d="M150.436 23.3937C150.064 23.4306 149.451 22.6362 149.185 22.1396L150.436 23.3937Z" fill="#0B53AA"/>
<path d="M150.18 27.7822C149.98 28.1874 149.805 28.1291 149.656 27.6691C149.828 27.6039 149.97 27.7246 150.18 27.7822Z" fill="#0B53AA"/>
<path d="M151.031 27.8645C151.109 28.2057 150.955 28.4113 150.785 28.6327C151.081 28.549 150.418 27.8922 151.031 27.8645Z" fill="#0B53AA"/>
<path d="M151.195 36.8994C151.234 37.1151 151.54 37.5576 151.162 37.7816C151.418 37.5445 150.652 36.7709 151.195 36.8994Z" fill="#0B53AA"/>
<path d="M151.695 41.0137C151.663 41.1382 151.595 41.2015 151.703 41.3542C151.534 41.6054 151.284 41.3316 151.244 41.1155L151.712 40.9978L151.695 41.0137Z" fill="#0B53AA"/>
<path d="M100.101 61.595C100.173 61.7172 100.245 61.8393 100.335 61.9765L99.9702 61.9683L100.101 61.595Z" fill="#0B53AA"/>
<path d="M120.05 59.6155C120.444 59.951 119.866 60.0095 119.85 60.0878C119.649 59.7329 120.323 60.0626 120.05 59.6155Z" fill="#0B53AA"/>
<path d="M123.934 77.5559L123.931 77.4012L124.664 77.4795L123.934 77.5559Z" fill="#0B53AA"/>
<path d="M72.4227 164.814C72.7555 164.761 72.4979 164.234 72.6997 164.621C72.564 164.843 72.4275 165.033 72.4227 164.814Z" fill="#0B53AA"/>
<path d="M53.7981 125.871C55.4423 127.03 53.317 127.705 54.247 128.831C54.2846 128.954 53.2668 128.572 53.4299 128.862C54.587 130.03 53.3425 131.183 51.8966 131.892L51.6326 131.757C51.3571 131.887 52.186 132.381 51.9984 132.554C51.8231 132.496 51.7692 132.42 51.4902 132.394C52.0169 132.6 51.622 132.84 51.9917 133.034C51.7482 133.039 51.3103 132.908 51.0327 132.944L51.6139 133.258C52.9708 134.02 51.213 134.007 51.8196 134.676C51.6791 134.617 51.5904 134.541 51.4335 134.529C52.047 135.506 51.509 136.352 51.4765 137.234C51.2828 137.129 50.896 136.951 50.634 136.91C51.2664 137.176 51.3081 137.484 51.3484 137.731C50.6492 137.59 51.779 138.31 51.3118 138.427L51.2053 138.337C51.79 138.805 50.6515 138.471 51.4101 138.936L50.8515 138.854C51.7485 139.285 50.2267 138.928 50.6517 139.26L50.8448 139.333C51.0065 139.562 50.4997 139.464 50.5904 139.632L50.4854 139.603C50.5639 140.003 49.9719 139.984 50.6916 140.264C50.0797 140.137 50.5782 139.864 49.6696 139.696C49.9073 140.99 49.1975 141.932 48.663 142.932C48.3144 142.907 48.1937 142.956 47.9126 142.838C48.0034 143.006 47.835 143.257 48.1366 143.514C48.1359 143.483 47.7341 143.413 47.6652 143.446C47.301 143.499 48.3216 144.005 47.9048 144.044C47.7792 143.876 47.55 143.742 47.2867 143.639C47.7309 144.047 47.5263 144.237 47.5673 144.514C47.4608 144.424 47.4417 144.347 47.2132 144.243C47.6942 144.744 46.8552 144.575 47.107 144.941L46.7699 144.654C46.0756 144.729 47.5299 145.18 47.0798 145.281C47.0074 145.159 46.8321 145.101 46.6732 144.996C47.2436 145.603 46.7621 145.86 46.8399 146.229C46.7867 146.184 46.6987 146.139 46.6987 146.139C46.6183 146.434 46.2043 146.597 46.3361 147.043C46.0926 147.048 45.4192 146.504 45.3572 146.845C46.1492 147.248 45.354 147.479 46.3526 147.785C46.0778 147.945 45.5253 148.141 45.6537 148.432C45.4387 148.158 44.6351 148.019 44.7169 147.786L44.1398 147.658C43.8397 147.462 44.3642 147.576 43.9249 147.384C43.8751 147.493 44.0069 147.939 43.8159 147.958C44.1564 148.399 44.9021 149.065 44.8054 149.407C44.6068 149.086 43.926 148.991 43.8353 148.823L44.9945 150.084C44.9945 150.084 44.3778 149.74 44.4706 150.001C44.6821 150.121 44.7544 150.243 44.8793 150.38C44.7572 150.367 44.7689 150.892 43.994 150.474C43.6604 150.342 43.9536 150.228 43.6214 150.157C43.5035 150.329 43.7334 150.495 43.6154 150.667L43.5267 150.592C43.3194 150.658 43.5562 151.132 44.0637 151.262C44.149 151.183 43.606 151.023 43.902 151.033C44.2752 151.381 44.2289 151.645 44.0939 151.833C44.0216 151.711 43.8101 151.591 43.6327 151.44C44.0292 152.051 44.002 152.391 44.0287 152.808C44.3644 153.034 43.4781 152.309 43.706 152.382C43.3233 152.389 43.3643 152.667 43.3698 152.914C43.4265 153.114 43.4988 153.236 43.0438 153.121C42.9906 153.076 43.5889 153.373 43.4661 153.329C43.3454 153.378 42.8003 153.126 42.9606 153.293C42.627 153.16 42.9982 153.416 43.0528 153.523C43.282 153.658 42.8604 153.48 42.8761 153.403C43.0726 153.631 43.4124 154.042 42.6826 154.087C42.9445 154.128 43.5755 154.332 43.5237 154.349L42.8954 154.268C42.4602 154.261 42.8463 154.408 42.2536 154.358C42.9705 154.514 41.896 153.932 42.405 154.123C41.8299 154.088 43.2815 154.415 42.4261 154.293C42.3586 154.387 43.0742 154.481 42.3621 154.541C42.4835 154.524 41.4548 154.435 41.4392 154.513C41.4426 154.667 41.7359 154.553 41.8778 154.674L42.1227 154.731C42.8185 154.718 41.9338 154.843 42.7673 154.765C42.1596 154.824 43.0313 154.899 41.8152 154.985L40.8595 155.05C40.8595 155.05 41.7995 155.062 42.2169 155.054C42.1303 155.071 41.9223 155.106 41.7661 155.125C43.2585 154.941 41.5608 155.284 42.7238 155.153C42.1365 155.35 42.5553 155.403 41.5527 155.701C42.005 155.692 42.5765 155.573 42.2158 155.781C42.0773 155.815 42.0248 155.8 41.679 155.9C41.179 156.11 41.6122 156.025 41.872 155.973C41.6299 156.04 40.8906 156.441 40.3239 156.776C40.8272 156.72 41.7227 156.301 42.2575 156.089C40.6568 156.878 43.3311 155.852 41.9561 156.621C41.7317 156.703 41.0742 156.87 40.7496 157.139C39.256 158.049 42.0285 156.743 41.4304 157.234L42.6491 156.484C41.9467 156.977 43.5119 156.158 42.2761 156.924C42.7406 156.683 42.0572 157.253 43.1539 156.489C42.5088 157.213 44.104 156.177 42.6733 157.566C42.8615 157.423 42.8124 157.563 43.2209 157.153C43.6287 156.712 42.7756 157.471 43.0995 157.171C43.1684 157.139 43.39 156.933 43.5093 156.823C43.3914 156.995 43.4098 157.041 42.6419 157.721C42.4088 158.189 44.1954 156.376 44.0802 156.672C43.7918 157.003 43.6902 157.128 43.7932 157.065L44.3898 156.512C44.3898 156.512 43.8839 157.233 43.4612 157.782C43.633 157.686 43.7381 157.715 44.0592 157.291L43.7265 157.978C43.959 157.479 44.015 157.648 44.1514 157.521L44.015 157.648C43.8984 157.882 44.1214 157.738 44.2067 157.659C44.373 157.316 44.3525 157.177 44.3504 157.085C44.5366 156.849 44.555 156.895 44.7753 156.628C44.4569 157.175 44.6969 157.016 44.7331 157.077C44.7529 157.185 45.0358 156.608 45.0358 156.608C44.9029 156.888 45.1068 156.668 44.9063 157.043C44.8211 157.122 44.9697 156.763 44.819 157.029C44.7714 157.231 44.5737 157.73 44.8266 157.369C45.0121 157.103 45.2206 156.31 45.2112 156.666C45.145 156.822 45.0448 157.009 44.9446 157.197L44.9856 157.474L45.1314 156.992C45.0994 157.116 45.0831 157.163 45.0844 157.225C45.2644 156.711 45.3245 157.066 45.5031 156.49C45.5542 156.443 45.5454 156.83 45.6164 156.89L45.5823 156.922C45.641 157.214 45.776 157.026 45.821 156.7L45.806 156.809C45.806 156.809 46.0836 156.773 46.1818 156.492C46.3988 156.859 46.2054 158.332 46.4529 157.724C46.6787 157.704 46.8333 156.835 46.7568 156.528C47.147 156.86 47.6168 156.078 47.9649 156.86C48.0303 156.673 48.0098 156.534 48.1292 156.424C48.7083 156.644 49.4223 155.888 49.81 156.886C49.6054 157.075 49.7685 157.366 49.74 157.645C49.9042 157.209 49.8724 158.121 49.9773 157.362C50.0024 156.928 50.0323 156.711 49.8713 156.514C50.2321 156.306 50.7723 156.341 50.9382 156.756C50.8638 156.541 50.9306 156.416 51.0322 156.29C50.9607 156.987 51.19 157.122 51.4109 156.886L51.4708 156.452L51.5678 156.898C51.6517 156.757 51.7395 156.013 51.8883 156.443C51.8747 156.614 51.8781 156.768 51.8986 156.907C52.1175 156.578 52.4877 156.014 52.67 156.382L52.7711 157.014C52.7711 157.014 53.0574 156.591 52.9312 156.392C53.271 156.803 53.4989 156.876 53.5454 157.401C54.3527 156.148 55.3111 156.207 56.0287 156.394L55.966 156.704C56.1298 157.026 56.1453 156.16 56.2729 156.42C56.1577 156.716 56.3229 157.099 56.1047 157.459C56.3394 157.841 56.5459 156.956 56.7696 156.843C56.865 156.44 56.5664 157.095 56.6938 156.567C56.7428 156.426 57.0329 156.946 57.193 156.325C57.2163 156.587 57.1045 157.038 57.0057 157.287L57.243 157.004C57.3298 157.776 56.5401 158.255 56.6133 159.196L56.7859 159.131C56.8359 159.811 56.2445 159.822 56.5985 160.093C56.8181 159.795 57.1289 158.908 57.0176 158.601C57.3975 158.47 57.4545 157.124 57.8222 157.225C57.8482 157.611 57.4927 157.278 57.4697 157.804C57.5687 158.343 57.8823 157.579 58.0256 157.762C57.898 157.502 58.1624 156.878 58.2995 156.783C58.4463 157.12 58.0514 157.36 58.3325 157.478C58.4463 157.12 58.7545 156.898 58.5914 156.607C58.8518 155.798 58.8411 156.88 59.1234 156.272C59.1017 156.86 58.578 157.566 58.8291 157.901C58.8863 157.343 59.3528 157.195 59.3512 156.345C59.442 156.513 59.365 156.963 59.2157 157.291C59.3284 157.659 59.8382 156.335 59.6892 157.451L59.8507 156.892C59.8725 157.092 59.9279 157.23 59.9525 157.555C60.0923 157.583 60.5983 156.862 60.4089 157.731C60.4941 157.652 60.827 157.754 60.8132 157.136C60.6651 156.737 60.4736 157.514 60.5252 156.709C60.5404 157.389 60.8554 156.687 61.0422 156.482L60.9973 156.808C61.1166 156.697 61.2578 156.787 61.3894 156.444C61.2892 156.632 61.2592 156.849 61.3138 156.956L61.4944 156.473C61.8552 156.265 61.3753 157.372 61.6863 157.274L61.3808 157.62C61.3808 157.62 61.4423 158.036 61.6135 157.909C61.7948 157.457 61.9918 156.927 62.1234 156.585C62.328 156.395 62.0655 157.112 62.369 156.673L62.0151 157.19C61.949 157.346 61.9805 157.979 62.207 157.99C62.3604 157.848 62.7641 157.222 62.601 156.931C62.7231 156.944 62.7995 157.252 62.6325 157.564C62.9258 157.45 62.7258 157.068 63.0163 156.83C63.041 157.154 63.1912 157.646 63.2541 158.124L62.8525 158.843L62.9923 158.871C62.6398 159.45 62.9686 159.367 62.7041 159.99C62.7764 160.113 62.9462 159.924 63.0819 159.766C63.04 158.67 63.7828 158.423 63.9353 157.462C64.4189 157.298 63.5874 159.803 64.4089 158.411C64.4034 158.164 64.8057 157.476 64.4626 157.699C64.6925 157.864 64.8948 156.794 65.0962 157.238C64.773 157.569 65.0665 158.244 64.6075 158.732C64.705 158.421 64.497 158.456 64.4117 158.535C64.42 158.906 64.1371 159.483 64.399 159.524C64.5893 159.474 64.7987 159.501 64.892 159.005C65.0365 158.461 64.6485 159.009 64.8803 158.479C65.2431 158.364 65.0701 159.187 65.4676 158.282C65.2418 158.302 65.3514 157.759 65.4646 157.37L65.7565 157.194L65.6079 157.553C65.9115 157.903 65.9071 156.929 66.2244 157.108L66.2062 157.85C65.941 158.443 65.7627 157.473 65.5413 158.466C65.7521 158.555 65.9675 158.072 66.1313 158.393C66.046 158.472 65.9765 158.473 65.926 158.552C65.997 158.612 65.6958 159.932 66.2543 159.226C66.527 158.973 66.4036 158.898 66.5167 158.509C66.9164 158.486 67.1523 158.141 67.4136 158.152C67.1334 158.853 67.8174 158.314 67.3279 158.988C67.3352 158.54 66.7936 158.442 66.4432 159.114C66.3234 159.982 66.1955 158.933 65.8663 159.774C66.1467 159.862 65.887 160.701 65.7774 161.245C65.8483 161.305 65.9826 161.086 66.0679 161.007C66.2478 160.493 66.1605 160.48 66.305 159.936C66.571 160.163 66.9836 159.938 67.3389 159.483C67.3799 159.76 67.1652 160.275 67.026 160.277C67.4598 160.223 67.8466 160.401 68.1653 160.642C68.2148 159.744 68.6331 160.555 68.7209 159.812C68.5763 159.567 68.6143 158.932 68.8502 158.588C68.9566 158.678 68.7193 158.961 68.7235 159.147C69.0446 158.723 68.7237 159.935 69.1267 159.278C68.6779 159.441 68.7143 160.291 68.4327 160.93C68.8262 160.629 68.2691 161.397 68.514 161.454C68.8905 161.169 69.2861 160.96 69.6325 160.892C69.7705 161.616 70.5255 161.137 70.8406 161.224C70.8837 161.594 70.4992 162.297 70.6255 162.496C70.8356 162.553 70.7807 161.658 70.9466 162.072L70.8628 162.213C71.0162 162.071 71.2258 162.886 71.7248 161.856L71.3417 162.621C71.3417 162.621 71.4965 162.541 71.5647 162.477C71.4659 162.727 71.4543 162.99 71.3009 163.132C71.2622 163.736 71.7191 163.155 71.9462 163.197L72.0047 162.701C72.4862 162.444 72.5505 162.984 72.9495 162.93L72.7682 163.382L73.0942 163.174C72.8774 163.596 72.9198 163.935 73.1734 163.606L72.203 164.568C72.1784 164.243 72.5747 164.066 72.6857 163.584C72.7634 163.165 72.3984 163.188 72.1816 163.61C72.2881 163.7 72.3208 163.607 72.4742 163.465C72.2452 164.118 72.0869 164.044 71.8347 164.436C71.9042 164.434 71.9091 164.651 72.0093 164.463C71.7543 164.731 71.6329 164.749 71.4228 164.691C71.6444 164.486 71.5004 164.272 71.6361 164.115C71.405 164.676 71.1465 164.789 70.95 164.561C71.0215 163.864 70.3123 164.836 70.1151 164.577C70.4513 164.045 70.7724 163.621 71.0295 163.446C70.9524 163.108 70.8194 163.389 70.7422 163.05C70.49 163.441 70.1736 164.081 69.8647 164.273L70.0119 163.853C69.7193 163.997 69.4896 164.62 69.259 164.424C68.8688 164.091 68.396 163.961 68.0447 163.814L68.1742 163.378C67.671 164.223 67.3946 163.532 67.0018 163.865C66.6769 163.345 65.8743 164.026 65.8741 163.237C64.9546 163.363 64.1757 163.549 63.3673 163.193L63.6673 162.6C63.3809 163.023 63.676 162.213 63.5035 162.278C63.5329 162.819 63.1169 162.889 62.9165 163.264C62.6776 162.696 62.0433 163.126 61.6171 163.521L61.7118 163.086C61.1888 163.823 60.9628 163.054 60.5753 162.846C60.5712 162.66 60.5793 162.242 60.4579 162.26C60.0726 162.933 59.9662 162.842 59.54 163.237C59.2951 163.18 58.9424 162.97 58.7438 162.649C57.6315 163.49 56.8141 162.733 55.7631 163.202L55.7862 162.676C54.7121 163.671 53.7125 162.546 52.8532 163.026L53.0249 162.142C52.8092 161.837 52.4199 162.324 52.4166 162.958C52.184 162.668 51.764 163.341 51.6778 162.601C51.4472 162.404 51.3382 162.979 51.1145 163.091C50.6362 162.714 50.4467 162.795 49.9624 162.928L50.0511 163.004C50.1336 162.801 50.1771 162.414 50.0714 162.354C49.8852 162.589 49.4212 162.073 49.532 163.137C49.0653 162.497 48.3242 163.594 47.8526 162.737C47.8765 163.03 47.7558 163.079 47.6904 163.266C47.2552 163.259 46.8069 162.665 46.4175 163.152C46.3445 162.998 46.5456 162.654 46.371 162.627C46.2517 162.737 46.3622 163.013 46.2265 163.171C46.1413 163.25 46.0376 163.283 45.951 163.3C45.8473 163.333 45.6209 163.322 45.4462 163.294C45.0977 163.27 44.7477 163.184 44.4326 163.097C43.7845 162.909 43.2401 162.688 42.6331 162.777C42.0622 162.927 41.404 163.063 40.8992 163.058C40.4115 163.036 39.9231 162.984 39.4517 162.916L38.0547 162.696C37.6352 162.611 37.3357 162.447 37.0028 162.345L37.1903 162.171C36.0506 162.564 37.0284 161.154 35.5961 161.692C35.6963 161.505 35.3443 161.326 35.7924 161.132C34.9234 161.179 35.5411 160.008 34.58 159.826C34.5813 159.887 34.6509 159.886 34.773 159.899C35.0006 159.183 34.195 158.952 34.5966 158.233C34.7016 158.262 34.7903 158.337 35.0325 158.271C35.4771 157.922 33.9663 158.059 35.1571 157.619C35.1543 157.495 34.5671 157.692 34.6033 157.753C35.0961 156.445 34.7049 155.293 35.1779 153.877C36.6197 152.983 37.3396 154.051 36.9553 153.209C37.2507 153.187 36.5174 153.078 36.7793 153.119C36.6674 152.781 38.4641 152.978 37.9702 152.679C37.185 152.586 37.6693 152.453 37.2491 152.337C38.1616 151.902 38.809 152.059 38.656 151.444L38.9733 151.623C38.6676 151.181 38.8168 150.853 38.9313 150.526C38.9797 150.355 39.0281 150.184 39.041 149.983C39.0198 149.813 38.912 149.661 38.7155 149.433C39.9285 147.647 40.5978 145.67 41.6027 143.919C42.9242 142.316 43.4735 140.419 45.0221 138.859C46.1346 138.806 46.1333 138.744 46.0151 138.128C46.1386 138.203 46.157 138.249 46.3317 138.277C45.6113 137.966 46.4277 137.904 45.7421 137.592C46.2331 136.98 46.3038 136.252 46.6365 135.565C46.657 135.704 47.2375 135.986 47.2689 135.831L46.8786 135.499L47.0717 135.572C46.9993 135.45 46.6637 135.224 46.4024 135.214C46.5322 133.233 48.748 131.937 49.1759 130.058C49.6382 129.725 49.518 129.016 49.524 128.505C50.995 127.364 52.17 126.212 51.7691 124.627C51.7691 124.627 53.7651 125.176 54.0941 125.881L53.7981 125.871Z" fill="#0B53AA"/>
<path d="M72.0738 164.784C72.1535 164.423 72.0425 164.175 72.3846 163.762C72.2691 164.092 72.2252 164.484 72.0738 164.784Z" fill="#0B53AA"/>
<path d="M68.4697 159.812C68.4697 159.812 68.431 159.656 68.4469 159.577C68.5173 159.576 68.6871 159.29 68.674 159.494C68.6036 159.496 68.5546 159.669 68.4697 159.812Z" fill="#0B53AA"/>
<path d="M67.1908 159.271C67.3079 158.968 67.6939 158.802 67.8711 158.799L67.1908 159.271Z" fill="#0B53AA"/>
<path d="M66.3482 157.689C66.3069 157.408 66.3916 157.266 66.5507 157.31C66.5018 157.483 66.4329 157.547 66.3482 157.689Z" fill="#0B53AA"/>
<path d="M66.0318 158.389C66.0318 158.389 65.9234 158.176 65.9194 157.992C65.8387 158.255 66.2107 157.879 66.0318 158.389Z" fill="#0B53AA"/>
<path d="M63.502 156.933C63.502 156.933 63.228 157.187 63.22 156.815C63.2253 157.063 63.6494 156.48 63.502 156.933Z" fill="#0B53AA"/>
<path d="M62.0839 157.182C62.0839 157.182 62.0468 157.089 61.961 157.169C61.9226 157.014 62.0579 156.793 62.128 156.792L62.0667 157.198L62.0839 157.182Z" fill="#0B53AA"/>
<path d="M42.0647 157.054L42.3633 156.97L41.8389 157.232L42.0647 157.054Z" fill="#0B53AA"/>
<path d="M44.5492 152.585C44.4415 152.373 44.8774 152.686 44.9292 152.7C44.8801 152.808 44.6144 152.431 44.5492 152.585Z" fill="#0B53AA"/>
<path d="M46.3498 147.406L46.3505 147.436L45.7458 147.097L46.3498 147.406Z" fill="#0B53AA"/>
</svg>
