<svg width="51" height="50" viewBox="0 0 51 50" fill="none" xmlns="http://www.w3.org/2000/svg">
<path d="M27.6198 41.5378C31.8225 41.0031 35.6639 38.8881 38.3632 35.6228C41.0625 32.3575 42.4171 28.1869 42.1518 23.9586C41.8865 19.7303 40.0212 15.7618 36.9349 12.8595C33.8486 9.95714 29.773 8.33891 25.5365 8.33366C21.2947 8.3305 17.2114 9.94478 14.1184 12.8476C11.0255 15.7504 9.15571 19.7232 8.89009 23.9567C8.62447 28.1901 9.98299 32.3655 12.6888 35.6321C15.3947 38.8988 19.2442 41.0108 23.4531 41.5378V29.167H19.2865V25.0003H23.4531V21.5545C23.4531 18.7691 23.7448 17.7587 24.2865 16.7399C24.8204 15.7323 25.645 14.9084 26.6531 14.3753C27.449 13.9482 28.4385 13.692 30.1677 13.5816C30.8538 13.5371 31.7413 13.5927 32.8302 13.7482V17.7066H31.7885C29.8781 17.7066 29.0885 17.7962 28.6177 18.0482C28.337 18.1931 28.1084 18.4217 27.9635 18.7024C27.7135 19.1732 27.6219 19.6399 27.6219 21.5524V25.0003H32.8302L31.7885 29.167H27.6219L27.6198 41.5378ZM25.5365 45.8337C14.0302 45.8337 4.70312 36.5066 4.70312 25.0003C4.70312 13.4941 14.0302 4.16699 25.5365 4.16699C37.0427 4.16699 46.3698 13.4941 46.3698 25.0003C46.3698 36.5066 37.0427 45.8337 25.5365 45.8337Z" fill="#F9FAE5"/>
</svg>
