<svg width="1920" height="1708" viewBox="0 0 1920 1708" fill="none" xmlns="http://www.w3.org/2000/svg">
<rect x="-3" y="137" width="1920" height="1571" fill="#F9FAE5"/>
<path d="M-52.3527 86.8803C21.9304 43.4497 118.561 38.2743 208.361 46.1869C298.161 54.0995 386.724 73.5494 476.998 73.7643C666.674 74.2033 850.091 -10.173 1038.35 9.361C1133.51 19.2354 1223.9 55.4261 1319.75 57.2664C1404.13 58.8826 1485.85 33.7341 1569.71 25.672C1719.32 11.2854 1868.8 51.736 2006.51 103.266C2023.45 109.609 2042.62 118.662 2044.83 134.225C2047.9 155.758 2017.45 168.454 1992.52 173.471C1879.21 196.293 1761.89 199.899 1645.48 203.402C1147.2 218.405 645.164 233.222 152.883 166.315C95.8493 158.561 39.0251 149.724 -17.7881 140.886C-38.9109 137.598 -62.7817 132.712 -73.0783 116.756C-83.3748 100.8 -61.954 75.2777 -44.1751 85.4884" fill="#F9FAE5"/>
</svg>
